<?xml version="1.0" encoding="UTF-8"?>
<!DOCTYPE svg PUBLIC "-//W3C//DTD SVG 1.1//EN" "http://www.w3.org/Graphics/SVG/1.1/DTD/svg11.dtd">
<svg width="198mm" height="99mm" viewBox="0 0 19800 9900" version="1.1" xmlns="http://www.w3.org/2000/svg" xmlns:xlink="http://www.w3.org/1999/xlink" stroke-width="28.222" stroke-linejoin="round" xml:space="preserve">
 <path fill="rgb(255,255,255)" stroke="none" d="M 9918,9881 L 0,9881 0,0 19835,0 19835,9881 9918,9881 Z"/>
 <path fill="none" stroke="rgb(179,179,179)" stroke-linejoin="round" d="M 9303,8081 L 2029,8081 2029,1530 16576,1530 16576,8081 9303,8081 Z"/>
 <path fill="none" stroke="rgb(179,179,179)" stroke-linejoin="round" d="M 16576,8080 L 2029,8080"/>
 <path fill="none" stroke="rgb(179,179,179)" stroke-linejoin="round" d="M 16576,7144 L 2029,7144"/>
 <path fill="none" stroke="rgb(179,179,179)" stroke-linejoin="round" d="M 16576,6208 L 2029,6208"/>
 <path fill="none" stroke="rgb(179,179,179)" stroke-linejoin="round" d="M 16576,5272 L 2029,5272"/>
 <path fill="none" stroke="rgb(179,179,179)" stroke-linejoin="round" d="M 16576,4337 L 2029,4337"/>
 <path fill="none" stroke="rgb(179,179,179)" stroke-linejoin="round" d="M 16576,3401 L 2029,3401"/>
 <path fill="none" stroke="rgb(179,179,179)" stroke-linejoin="round" d="M 16576,2464 L 2029,2464"/>
 <path fill="none" stroke="rgb(179,179,179)" stroke-linejoin="round" d="M 16576,1528 L 2029,1528"/>
 <path fill="none" stroke="rgb(179,179,179)" stroke-linejoin="round" d="M 2029,8230 L 2029,8080"/>
 <path fill="none" stroke="rgb(179,179,179)" stroke-linejoin="round" d="M 2029,8230 L 2029,8080"/>
 <path fill="none" stroke="rgb(179,179,179)" stroke-linejoin="round" d="M 4107,8230 L 4107,8080"/>
 <path fill="none" stroke="rgb(179,179,179)" stroke-linejoin="round" d="M 4107,8230 L 4107,8080"/>
 <path fill="none" stroke="rgb(179,179,179)" stroke-linejoin="round" d="M 6185,8230 L 6185,8080"/>
 <path fill="none" stroke="rgb(179,179,179)" stroke-linejoin="round" d="M 6185,8230 L 6185,8080"/>
 <path fill="none" stroke="rgb(179,179,179)" stroke-linejoin="round" d="M 8263,8230 L 8263,8080"/>
 <path fill="none" stroke="rgb(179,179,179)" stroke-linejoin="round" d="M 8263,8230 L 8263,8080"/>
 <path fill="none" stroke="rgb(179,179,179)" stroke-linejoin="round" d="M 10341,8230 L 10341,8080"/>
 <path fill="none" stroke="rgb(179,179,179)" stroke-linejoin="round" d="M 10341,8230 L 10341,8080"/>
 <path fill="none" stroke="rgb(179,179,179)" stroke-linejoin="round" d="M 12419,8230 L 12419,8080"/>
 <path fill="none" stroke="rgb(179,179,179)" stroke-linejoin="round" d="M 12419,8230 L 12419,8080"/>
 <path fill="none" stroke="rgb(179,179,179)" stroke-linejoin="round" d="M 14497,8230 L 14497,8080"/>
 <path fill="none" stroke="rgb(179,179,179)" stroke-linejoin="round" d="M 14497,8230 L 14497,8080"/>
 <path fill="none" stroke="rgb(179,179,179)" stroke-linejoin="round" d="M 16576,8230 L 16576,8080"/>
 <path fill="none" stroke="rgb(179,179,179)" stroke-linejoin="round" d="M 16576,8230 L 16576,8080"/>
 <path fill="none" stroke="rgb(179,179,179)" stroke-linejoin="round" d="M 2029,8080 L 16576,8080"/>
 <path fill="none" stroke="rgb(179,179,179)" stroke-linejoin="round" d="M 1879,8080 L 2029,8080"/>
 <path fill="none" stroke="rgb(179,179,179)" stroke-linejoin="round" d="M 1879,8080 L 2029,8080"/>
 <path fill="none" stroke="rgb(179,179,179)" stroke-linejoin="round" d="M 1879,7144 L 2029,7144"/>
 <path fill="none" stroke="rgb(179,179,179)" stroke-linejoin="round" d="M 1879,7144 L 2029,7144"/>
 <path fill="none" stroke="rgb(179,179,179)" stroke-linejoin="round" d="M 1879,6208 L 2029,6208"/>
 <path fill="none" stroke="rgb(179,179,179)" stroke-linejoin="round" d="M 1879,6208 L 2029,6208"/>
 <path fill="none" stroke="rgb(179,179,179)" stroke-linejoin="round" d="M 1879,5272 L 2029,5272"/>
 <path fill="none" stroke="rgb(179,179,179)" stroke-linejoin="round" d="M 1879,5272 L 2029,5272"/>
 <path fill="none" stroke="rgb(179,179,179)" stroke-linejoin="round" d="M 1879,4337 L 2029,4337"/>
 <path fill="none" stroke="rgb(179,179,179)" stroke-linejoin="round" d="M 1879,4337 L 2029,4337"/>
 <path fill="none" stroke="rgb(179,179,179)" stroke-linejoin="round" d="M 1879,3400 L 2029,3400"/>
 <path fill="none" stroke="rgb(179,179,179)" stroke-linejoin="round" d="M 1879,3400 L 2029,3400"/>
 <path fill="none" stroke="rgb(179,179,179)" stroke-linejoin="round" d="M 1879,2464 L 2029,2464"/>
 <path fill="none" stroke="rgb(179,179,179)" stroke-linejoin="round" d="M 1879,2464 L 2029,2464"/>
 <path fill="none" stroke="rgb(179,179,179)" stroke-linejoin="round" d="M 1879,1528 L 2029,1528"/>
 <path fill="none" stroke="rgb(179,179,179)" stroke-linejoin="round" d="M 1879,1528 L 2029,1528"/>
 <path fill="none" stroke="rgb(179,179,179)" stroke-linejoin="round" d="M 2029,8080 L 2029,1528"/>
 <path fill="none" stroke="rgb(87,157,28)" stroke-width="80" stroke-linejoin="round" d="M 2029,8080 L 2444,8080 2444,8080 2860,8080 2860,7892 3275,7892 3275,7892 3691,7892 3691,7892 4107,7892 4107,7705 4522,7705 4522,7705 4938,7705 4938,7705 5354,7705 5354,7518 5769,7518 5769,7518 6185,7518 6185,7518 6601,7518 6601,7331 7016,7331 7016,7331 7432,7331 7432,7331 7848,7331 7848,7144 8263,7144 8263,7144 8679,7144 8679,7144 9095,7144 9095,6956 9510,6956 9510,6956 9925,6956 9925,6956 10341,6956 10341,6769 10756,6769 10756,6769 11172,6769 11172,6582 11588,6582 11588,6582 12003,6582 12003,6582 12419,6582 12419,6395 12835,6395 12835,6395 13250,6395 13250,6395 13666,6395 13666,6208 14082,6208 14082,6208 14497,6208 14497,6020"/>
 <path fill="none" stroke="rgb(255,211,32)" stroke-width="80" stroke-linejoin="round" d="M 2029,8080 L 2444,8080 2444,7892 2860,7892 2860,7892 3275,7892 3275,7705 3691,7705 3691,7705 4107,7705 4107,7518 4522,7518 4522,7518 4938,7518 4938,7331 5354,7331 5354,7331 5769,7331 5769,7144 6185,7144 6185,7144 6601,7144 6601,6956 7016,6956 7016,6956 7432,6956 7432,6769 7848,6769 7848,6769 8263,6769 8263,6582 8679,6582 8679,6582 9095,6582 9095,6395 9510,6395 9510,6395 9925,6395 9925,6208 10341,6208 10341,6208 10756,6208 10756,6020 11172,6020 11172,6020 11588,6020 11588,5833 12003,5833 12003,5833 12419,5833 12419,5646 12835,5646 12835,5646 13250,5646 13250,5459 13666,5459 13666,5459 14082,5459 14082,5272 14497,5272 14497,5272"/>
 <path fill="none" stroke="rgb(255,66,14)" stroke-width="80" stroke-linejoin="round" d="M 2029,8080 L 2444,8080 2444,8080 2860,8080 2860,7892 3275,7892 3275,7892 3691,7892 3691,7705 4107,7705 4107,7518 4522,7518 4522,7518 4938,7518 4938,7331 5354,7331 5354,7144 5769,7144 5769,7144 6185,7144 6185,6956 6601,6956 6601,6769 7016,6769 7016,6769 7432,6769 7432,6582 7848,6582 7848,6395 8263,6395 8263,6395 8679,6395 8679,6208 9095,6208 9095,6020 9510,6020 9510,5833 9925,5833 9925,5833 10341,5833 10341,5646 10756,5646 10756,5459 11172,5459 11172,5272 11588,5272 11588,5272 12003,5272 12003,5084 12419,5084 12419,4898 12835,4898 12835,4711 13250,4711 13250,4711 13666,4711 13666,4524 14082,4524 14082,4337 14497,4337 14497,4149"/>
 <path fill="none" stroke="rgb(0,69,134)" stroke-width="80" stroke-linejoin="round" d="M 2029,8080 L 2444,8080 2444,7892 2860,7892 2860,7705 3275,7705 3275,7518 3691,7518 3691,7331 4107,7331 4107,7144 4522,7144 4522,6956 4938,6956 4938,6769 5354,6769 5354,6582 5769,6582 5769,6395 6185,6395 6185,6208 6601,6208 6601,6020 7016,6020 7016,5833 7432,5833 7432,5646 7848,5646 7848,5459 8263,5459 8263,5272 8679,5272 8679,5084 9095,5084 9095,4898 9510,4898 9510,4711 9925,4711 9925,4524 10341,4524 10341,4337 10756,4337 10756,4149 11172,4149 11172,3962 11588,3962 11588,3775 12003,3775 12003,3588 12419,3588 12419,3401 12835,3401 12835,3213 13250,3213 13250,3026 13666,3026 13666,2839 14082,2839 14082,2652 14497,2652 14497,2464"/>
 <text class="SVGTextShape"><tspan class="TextParagraph" font-family="Liberation Sans, sans-serif" font-size="353px" font-weight="400"><tspan class="TextPosition" x="1932" y="8648"><tspan fill="rgb(0,0,0)" stroke="none">0</tspan></tspan></tspan></text>
 <text class="SVGTextShape"><tspan class="TextParagraph" font-family="Liberation Sans, sans-serif" font-size="353px" font-weight="400"><tspan class="TextPosition" x="4010" y="8648"><tspan fill="rgb(0,0,0)" stroke="none">5</tspan></tspan></tspan></text>
 <text class="SVGTextShape"><tspan class="TextParagraph" font-family="Liberation Sans, sans-serif" font-size="353px" font-weight="400"><tspan class="TextPosition" x="5991" y="8648"><tspan fill="rgb(0,0,0)" stroke="none">10</tspan></tspan></tspan></text>
 <text class="SVGTextShape"><tspan class="TextParagraph" font-family="Liberation Sans, sans-serif" font-size="353px" font-weight="400"><tspan class="TextPosition" x="8069" y="8648"><tspan fill="rgb(0,0,0)" stroke="none">15</tspan></tspan></tspan></text>
 <text class="SVGTextShape"><tspan class="TextParagraph" font-family="Liberation Sans, sans-serif" font-size="353px" font-weight="400"><tspan class="TextPosition" x="10148" y="8648"><tspan fill="rgb(0,0,0)" stroke="none">20</tspan></tspan></tspan></text>
 <text class="SVGTextShape"><tspan class="TextParagraph" font-family="Liberation Sans, sans-serif" font-size="353px" font-weight="400"><tspan class="TextPosition" x="12226" y="8648"><tspan fill="rgb(0,0,0)" stroke="none">25</tspan></tspan></tspan></text>
 <text class="SVGTextShape"><tspan class="TextParagraph" font-family="Liberation Sans, sans-serif" font-size="353px" font-weight="400"><tspan class="TextPosition" x="14304" y="8648"><tspan fill="rgb(0,0,0)" stroke="none">30</tspan></tspan></tspan></text>
 <text class="SVGTextShape"><tspan class="TextParagraph" font-family="Liberation Sans, sans-serif" font-size="353px" font-weight="400"><tspan class="TextPosition" x="16383" y="8648"><tspan fill="rgb(0,0,0)" stroke="none">35</tspan></tspan></tspan></text>
 <text class="SVGTextShape"><tspan class="TextParagraph" font-family="Liberation Sans, sans-serif" font-size="353px" font-weight="400"><tspan class="TextPosition" x="1585" y="8205"><tspan fill="rgb(0,0,0)" stroke="none">0</tspan></tspan></tspan></text>
 <text class="SVGTextShape"><tspan class="TextParagraph" font-family="Liberation Sans, sans-serif" font-size="353px" font-weight="400"><tspan class="TextPosition" x="1585" y="7269"><tspan fill="rgb(0,0,0)" stroke="none">5</tspan></tspan></tspan></text>
 <text class="SVGTextShape"><tspan class="TextParagraph" font-family="Liberation Sans, sans-serif" font-size="353px" font-weight="400"><tspan class="TextPosition" x="1391" y="6333"><tspan fill="rgb(0,0,0)" stroke="none">10</tspan></tspan></tspan></text>
 <text class="SVGTextShape"><tspan class="TextParagraph" font-family="Liberation Sans, sans-serif" font-size="353px" font-weight="400"><tspan class="TextPosition" x="1391" y="5397"><tspan fill="rgb(0,0,0)" stroke="none">15</tspan></tspan></tspan></text>
 <text class="SVGTextShape"><tspan class="TextParagraph" font-family="Liberation Sans, sans-serif" font-size="353px" font-weight="400"><tspan class="TextPosition" x="1391" y="4461"><tspan fill="rgb(0,0,0)" stroke="none">20</tspan></tspan></tspan></text>
 <text class="SVGTextShape"><tspan class="TextParagraph" font-family="Liberation Sans, sans-serif" font-size="353px" font-weight="400"><tspan class="TextPosition" x="1391" y="3524"><tspan fill="rgb(0,0,0)" stroke="none">25</tspan></tspan></tspan></text>
 <text class="SVGTextShape"><tspan class="TextParagraph" font-family="Liberation Sans, sans-serif" font-size="353px" font-weight="400"><tspan class="TextPosition" x="1391" y="2588"><tspan fill="rgb(0,0,0)" stroke="none">30</tspan></tspan></tspan></text>
 <text class="SVGTextShape"><tspan class="TextParagraph" font-family="Liberation Sans, sans-serif" font-size="353px" font-weight="400"><tspan class="TextPosition" x="1391" y="1652"><tspan fill="rgb(0,0,0)" stroke="none">35</tspan></tspan></tspan></text>
 <text class="SVGTextShape"><tspan class="TextParagraph" font-family="Liberation Sans, sans-serif" font-size="459px" font-weight="400"><tspan class="TextPosition" x="7011" y="898"><tspan fill="rgb(0,0,0)" stroke="none">Modifier Functions (around 0)</tspan></tspan></tspan></text>
 <path fill="none" stroke="rgb(0,69,134)" stroke-width="80" stroke-linejoin="round" d="M 17284,3213 L 18084,3213"/>
 <path fill="none" stroke="rgb(255,66,14)" stroke-width="80" stroke-linejoin="round" d="M 17284,4092 L 18084,4092"/>
 <path fill="none" stroke="rgb(255,211,32)" stroke-width="80" stroke-linejoin="round" d="M 17284,4970 L 18084,4970"/>
 <path fill="none" stroke="rgb(87,157,28)" stroke-width="80" stroke-linejoin="round" d="M 17284,5849 L 18084,5849"/>
 <text class="SVGTextShape"><tspan class="TextParagraph" font-family="Liberation Sans, sans-serif" font-size="353px" font-weight="400"><tspan class="TextPosition" x="18184" y="3356"><tspan fill="rgb(0,0,0)" stroke="none">0</tspan></tspan></tspan><tspan class="TextParagraph" font-family="Liberation Sans, sans-serif" font-size="353px" font-weight="400"><tspan class="TextPosition" x="18184" y="3745"><tspan fill="rgb(0,0,0)" stroke="none">Linear</tspan></tspan></tspan></text>
 <text class="SVGTextShape"><tspan class="TextParagraph" font-family="Liberation Sans, sans-serif" font-size="353px" font-weight="400"><tspan class="TextPosition" x="18184" y="4235"><tspan fill="rgb(0,0,0)" stroke="none">1</tspan></tspan></tspan><tspan class="TextParagraph" font-family="Liberation Sans, sans-serif" font-size="353px" font-weight="400"><tspan class="TextPosition" x="18184" y="4624"><tspan fill="rgb(0,0,0)" stroke="none">Squared</tspan></tspan></tspan></text>
 <text class="SVGTextShape"><tspan class="TextParagraph" font-family="Liberation Sans, sans-serif" font-size="353px" font-weight="400"><tspan class="TextPosition" x="18184" y="5502"><tspan fill="rgb(0,0,0)" stroke="none">Tan()</tspan></tspan></tspan></text>
 <text class="SVGTextShape"><tspan class="TextParagraph" font-family="Liberation Sans, sans-serif" font-size="353px" font-weight="400"><tspan class="TextPosition" x="18184" y="5992"><tspan fill="rgb(0,0,0)" stroke="none">3</tspan></tspan></tspan><tspan class="TextParagraph" font-family="Liberation Sans, sans-serif" font-size="353px" font-weight="400"><tspan class="TextPosition" x="18184" y="6381"><tspan fill="rgb(0,0,0)" stroke="none">Squared</tspan></tspan></tspan><tspan class="TextParagraph" font-family="Liberation Sans, sans-serif" font-size="353px" font-weight="400"><tspan class="TextPosition" x="18184" y="6770"><tspan fill="rgb(0,0,0)" stroke="none">Tan()</tspan></tspan></tspan></text>
 <text class="SVGTextShape"><tspan class="TextParagraph" font-family="Liberation Sans, sans-serif" font-size="318px" font-weight="400"><tspan class="TextPosition" x="8534" y="9296"><tspan fill="rgb(0,0,0)" stroke="none">x inputs</tspan></tspan></tspan></text>
 <text class="SVGTextShape" transform="rotate(-90 828 5539)"><tspan class="TextParagraph" font-family="Liberation Sans, sans-serif" font-size="318px" font-weight="400"><tspan class="TextPosition" x="828" y="5539"><tspan fill="rgb(0,0,0)" stroke="none">result y</tspan></tspan></tspan></text>
</svg>