<?xml version="1.0" encoding="UTF-8"?>
<!DOCTYPE svg PUBLIC "-//W3C//DTD SVG 1.1//EN" "http://www.w3.org/Graphics/SVG/1.1/DTD/svg11.dtd">
<svg width="199mm" height="98mm" viewBox="0 0 19900 9800" version="1.1" xmlns="http://www.w3.org/2000/svg" xmlns:xlink="http://www.w3.org/1999/xlink" stroke-width="28.222" stroke-linejoin="round" xml:space="preserve">
 <path fill="rgb(255,255,255)" stroke="none" d="M 9970,9753 L 0,9753 0,0 19940,0 19940,9753 9970,9753 Z"/>
 <path fill="none" stroke="rgb(179,179,179)" stroke-linejoin="round" d="M 9404,7955 L 2225,7955 2225,1527 16582,1527 16582,7955 9404,7955 Z"/>
 <path fill="none" stroke="rgb(179,179,179)" stroke-linejoin="round" d="M 16582,7954 L 2225,7954"/>
 <path fill="none" stroke="rgb(179,179,179)" stroke-linejoin="round" d="M 16582,7150 L 2225,7150"/>
 <path fill="none" stroke="rgb(179,179,179)" stroke-linejoin="round" d="M 16582,6346 L 2225,6346"/>
 <path fill="none" stroke="rgb(179,179,179)" stroke-linejoin="round" d="M 16582,5543 L 2225,5543"/>
 <path fill="none" stroke="rgb(179,179,179)" stroke-linejoin="round" d="M 16582,4740 L 2225,4740"/>
 <path fill="none" stroke="rgb(179,179,179)" stroke-linejoin="round" d="M 16582,3936 L 2225,3936"/>
 <path fill="none" stroke="rgb(179,179,179)" stroke-linejoin="round" d="M 16582,3133 L 2225,3133"/>
 <path fill="none" stroke="rgb(179,179,179)" stroke-linejoin="round" d="M 16582,2329 L 2225,2329"/>
 <path fill="none" stroke="rgb(179,179,179)" stroke-linejoin="round" d="M 16582,1525 L 2225,1525"/>
 <path fill="none" stroke="rgb(179,179,179)" stroke-linejoin="round" d="M 2225,8104 L 2225,7954"/>
 <path fill="none" stroke="rgb(179,179,179)" stroke-linejoin="round" d="M 2225,8104 L 2225,7954"/>
 <path fill="none" stroke="rgb(179,179,179)" stroke-linejoin="round" d="M 4019,8104 L 4019,7954"/>
 <path fill="none" stroke="rgb(179,179,179)" stroke-linejoin="round" d="M 4019,8104 L 4019,7954"/>
 <path fill="none" stroke="rgb(179,179,179)" stroke-linejoin="round" d="M 5814,8104 L 5814,7954"/>
 <path fill="none" stroke="rgb(179,179,179)" stroke-linejoin="round" d="M 5814,8104 L 5814,7954"/>
 <path fill="none" stroke="rgb(179,179,179)" stroke-linejoin="round" d="M 7609,8104 L 7609,7954"/>
 <path fill="none" stroke="rgb(179,179,179)" stroke-linejoin="round" d="M 7609,8104 L 7609,7954"/>
 <path fill="none" stroke="rgb(179,179,179)" stroke-linejoin="round" d="M 9404,8104 L 9404,7954"/>
 <path fill="none" stroke="rgb(179,179,179)" stroke-linejoin="round" d="M 9404,8104 L 9404,7954"/>
 <path fill="none" stroke="rgb(179,179,179)" stroke-linejoin="round" d="M 11197,8104 L 11197,7954"/>
 <path fill="none" stroke="rgb(179,179,179)" stroke-linejoin="round" d="M 11197,8104 L 11197,7954"/>
 <path fill="none" stroke="rgb(179,179,179)" stroke-linejoin="round" d="M 12992,8104 L 12992,7954"/>
 <path fill="none" stroke="rgb(179,179,179)" stroke-linejoin="round" d="M 12992,8104 L 12992,7954"/>
 <path fill="none" stroke="rgb(179,179,179)" stroke-linejoin="round" d="M 14787,8104 L 14787,7954"/>
 <path fill="none" stroke="rgb(179,179,179)" stroke-linejoin="round" d="M 14787,8104 L 14787,7954"/>
 <path fill="none" stroke="rgb(179,179,179)" stroke-linejoin="round" d="M 16582,8104 L 16582,7954"/>
 <path fill="none" stroke="rgb(179,179,179)" stroke-linejoin="round" d="M 16582,8104 L 16582,7954"/>
 <path fill="none" stroke="rgb(179,179,179)" stroke-linejoin="round" d="M 2225,7954 L 16582,7954"/>
 <path fill="none" stroke="rgb(179,179,179)" stroke-linejoin="round" d="M 2075,7954 L 2225,7954"/>
 <path fill="none" stroke="rgb(179,179,179)" stroke-linejoin="round" d="M 2075,7954 L 2225,7954"/>
 <path fill="none" stroke="rgb(179,179,179)" stroke-linejoin="round" d="M 2075,7150 L 2225,7150"/>
 <path fill="none" stroke="rgb(179,179,179)" stroke-linejoin="round" d="M 2075,7150 L 2225,7150"/>
 <path fill="none" stroke="rgb(179,179,179)" stroke-linejoin="round" d="M 2075,6346 L 2225,6346"/>
 <path fill="none" stroke="rgb(179,179,179)" stroke-linejoin="round" d="M 2075,6346 L 2225,6346"/>
 <path fill="none" stroke="rgb(179,179,179)" stroke-linejoin="round" d="M 2075,5543 L 2225,5543"/>
 <path fill="none" stroke="rgb(179,179,179)" stroke-linejoin="round" d="M 2075,5543 L 2225,5543"/>
 <path fill="none" stroke="rgb(179,179,179)" stroke-linejoin="round" d="M 2075,4740 L 2225,4740"/>
 <path fill="none" stroke="rgb(179,179,179)" stroke-linejoin="round" d="M 2075,4740 L 2225,4740"/>
 <path fill="none" stroke="rgb(179,179,179)" stroke-linejoin="round" d="M 2075,3936 L 2225,3936"/>
 <path fill="none" stroke="rgb(179,179,179)" stroke-linejoin="round" d="M 2075,3936 L 2225,3936"/>
 <path fill="none" stroke="rgb(179,179,179)" stroke-linejoin="round" d="M 2075,3133 L 2225,3133"/>
 <path fill="none" stroke="rgb(179,179,179)" stroke-linejoin="round" d="M 2075,3133 L 2225,3133"/>
 <path fill="none" stroke="rgb(179,179,179)" stroke-linejoin="round" d="M 2075,2329 L 2225,2329"/>
 <path fill="none" stroke="rgb(179,179,179)" stroke-linejoin="round" d="M 2075,2329 L 2225,2329"/>
 <path fill="none" stroke="rgb(179,179,179)" stroke-linejoin="round" d="M 2075,1525 L 2225,1525"/>
 <path fill="none" stroke="rgb(179,179,179)" stroke-linejoin="round" d="M 2075,1525 L 2225,1525"/>
 <path fill="none" stroke="rgb(179,179,179)" stroke-linejoin="round" d="M 2225,7954 L 2225,1525"/>
 <path fill="none" stroke="rgb(87,157,28)" stroke-width="80" stroke-linejoin="round" d="M 2225,7954 L 2260,7954 2296,7937 2332,7937 2368,7937 2404,7921 2440,7921 2476,7921 2512,7905 2548,7905 2583,7905 2619,7889 2655,7889 2691,7889 2727,7873 2763,7873 2799,7873 2835,7857 2871,7857 2907,7857 2942,7841 2978,7841 3014,7825 3050,7825 3086,7825 3122,7809 3158,7809 3194,7809 3230,7793 3265,7793 3301,7777 3373,7777 3445,7761 3517,7745 3589,7728 3660,7712 3732,7696 3804,7680 3876,7664 3947,7648 4019,7648 4091,7632 4163,7616 4235,7600 4306,7584 4378,7568 4450,7552 4522,7536 4594,7536 4665,7503 4737,7487 4809,7471 4881,7455 4953,7455 5024,7439 5096,7423 5168,7391 5240,7375 5311,7359 5383,7343 5455,7343 5527,7327 5599,7311 5670,7278 5742,7262 5814,7246 5886,7230 5958,7214 6029,7198 6101,7182 6173,7166 6245,7150 6317,7134 6388,7118 6460,7102 6532,7070 6604,7053 6675,7037 6747,7021 6819,7005 6891,6989 6963,6957 7034,6941 7106,6925 7178,6909 7250,6893 7322,6861 7393,6844 7465,6828 7537,6812 7609,6780 7681,6764 7752,6748 7824,6732 7896,6700 7968,6684 8039,6668 8111,6652 8183,6619 8255,6603 8327,6571 8398,6555 8470,6523 8542,6507 8614,6475 8686,6459 8757,6443 8829,6411 8901,6394 8973,6362 9045,6346 9116,6314 9188,6282 9260,6266 9332,6234 9404,6218 9475,6186 9547,6169 9619,6137 9691,6121 9762,6073 9834,6057 9906,6025 9977,5993 10049,5977 10120,5944 10192,5912 10264,5896 10336,5848 10408,5816 10479,5784 10551,5768 10623,5735 10695,5703 10767,5655 10838,5623 10910,5591 10982,5559 11054,5527 11125,5478 11197,5446 11269,5414 11341,5382 11413,5350 11484,5318 11556,5269 11628,5237 11700,5189 11772,5157 11843,5125 11915,5060 11987,5028 12059,4980 12131,4948 12202,4884 12274,4836 12346,4804 12418,4756 12489,4708 12561,4644 12633,4595 12705,4563 12777,4515 12848,4435 12920,4386 12992,4338 13064,4290 13136,4210 13207,4161 13279,4097 13351,4049 13423,3952 13495,3904 13566,3840 13638,3776 13710,3679 13782,3615 13853,3551 13925,3454 13997,3374 14069,3310 14141,3229 14212,3117 14284,3036 14356,2956 14428,2827 14500,2747 14571,2667 14643,2570 14715,2426 14787,2329"/>
 <path fill="none" stroke="rgb(255,211,32)" stroke-width="80" stroke-linejoin="round" d="M 2225,7954 L 2260,7937 2296,7937 2332,7921 2368,7921 2404,7905 2440,7905 2476,7889 2512,7889 2548,7873 2583,7873 2619,7857 2655,7857 2691,7841 2727,7841 2763,7825 2799,7825 2835,7809 2871,7809 2907,7793 2942,7793 2978,7777 3014,7777 3050,7761 3086,7761 3122,7745 3158,7745 3194,7728 3230,7728 3265,7712 3301,7712 3373,7680 3445,7664 3517,7648 3589,7632 3660,7616 3732,7600 3804,7584 3876,7568 3947,7552 4019,7536 4091,7520 4163,7503 4235,7487 4306,7471 4378,7455 4450,7439 4522,7423 4594,7391 4665,7375 4737,7359 4809,7343 4881,7327 4953,7311 5024,7295 5096,7278 5168,7262 5240,7246 5311,7230 5383,7198 5455,7182 5527,7166 5599,7150 5670,7134 5742,7118 5814,7102 5886,7070 5958,7053 6029,7037 6101,7021 6173,7005 6245,6989 6317,6957 6388,6941 6460,6925 6532,6909 6604,6893 6675,6861 6747,6844 6819,6828 6891,6812 6963,6780 7034,6764 7106,6748 7178,6732 7250,6700 7322,6684 7393,6668 7465,6652 7537,6619 7609,6603 7681,6587 7752,6555 7824,6539 7896,6507 7968,6491 8039,6475 8111,6443 8183,6427 8255,6411 8327,6378 8398,6362 8470,6330 8542,6314 8614,6282 8686,6266 8757,6234 8829,6218 8901,6186 8973,6169 9045,6137 9116,6121 9188,6089 9260,6057 9332,6041 9404,6009 9475,5993 9547,5961 9619,5928 9691,5896 9762,5880 9834,5848 9906,5816 9977,5784 10049,5768 10120,5735 10192,5703 10264,5671 10336,5639 10408,5607 10479,5575 10551,5543 10623,5510 10695,5478 10767,5446 10838,5414 10910,5382 10982,5350 11054,5318 11125,5285 11197,5253 11269,5205 11341,5173 11413,5141 11484,5109 11556,5060 11628,5028 11700,4980 11772,4948 11843,4900 11915,4869 11987,4820 12059,4772 12131,4740 12202,4692 12274,4644 12346,4595 12418,4563 12489,4515 12561,4467 12633,4419 12705,4370 12777,4306 12848,4258 12920,4210 12992,4161 13064,4097 13136,4049 13207,3985 13279,3920 13351,3872 13423,3808 13495,3744 13566,3679 13638,3615 13710,3551 13782,3486 13853,3406 13925,3342 13997,3277 14069,3197 14141,3117 14212,3036 14284,2956 14356,2876 14428,2795 14500,2699 14571,2618 14643,2522 14715,2426 14787,2329"/>
 <path fill="none" stroke="rgb(255,66,14)" stroke-width="80" stroke-linejoin="round" d="M 2225,7954 L 2260,7954 2296,7937 2332,7937 2368,7921 2404,7905 2440,7905 2476,7889 2512,7873 2548,7873 2583,7857 2619,7841 2655,7841 2691,7825 2727,7809 2763,7809 2799,7793 2835,7777 2871,7761 2907,7761 2942,7745 2978,7728 3014,7712 3050,7712 3086,7696 3122,7680 3158,7664 3194,7664 3230,7648 3265,7632 3301,7616 3373,7600 3445,7568 3517,7536 3589,7520 3660,7487 3732,7455 3804,7439 3876,7407 3947,7375 4019,7359 4091,7327 4163,7295 4235,7262 4306,7246 4378,7214 4450,7182 4522,7150 4594,7134 4665,7102 4737,7070 4809,7037 4881,7005 4953,6989 5024,6957 5096,6925 5168,6893 5240,6861 5311,6828 5383,6796 5455,6780 5527,6748 5599,6716 5670,6684 5742,6652 5814,6619 5886,6587 5958,6555 6029,6523 6101,6491 6173,6475 6245,6443 6317,6411 6388,6378 6460,6346 6532,6314 6604,6282 6675,6250 6747,6218 6819,6186 6891,6153 6963,6121 7034,6089 7106,6057 7178,6025 7250,5993 7322,5961 7393,5928 7465,5896 7537,5864 7609,5832 7681,5800 7752,5768 7824,5735 7896,5703 7968,5671 8039,5639 8111,5607 8183,5575 8255,5543 8327,5494 8398,5462 8470,5430 8542,5398 8614,5366 8686,5334 8757,5302 8829,5269 8901,5237 8973,5205 9045,5173 9116,5141 9188,5093 9260,5060 9332,5028 9404,4996 9475,4964 9547,4932 9619,4900 9691,4869 9762,4820 9834,4788 9906,4756 9977,4724 10049,4692 10120,4660 10192,4627 10264,4595 10336,4547 10408,4515 10479,4483 10551,4451 10623,4419 10695,4386 10767,4338 10838,4306 10910,4274 10982,4242 11054,4210 11125,4161 11197,4129 11269,4097 11341,4065 11413,4033 11484,4001 11556,3952 11628,3920 11700,3888 11772,3856 11843,3824 11915,3776 11987,3744 12059,3711 12131,3679 12202,3631 12274,3599 12346,3567 12418,3535 12489,3502 12561,3454 12633,3422 12705,3390 12777,3358 12848,3310 12920,3277 12992,3245 13064,3213 13136,3165 13207,3133 13279,3101 13351,3068 13423,3020 13495,2988 13566,2956 13638,2924 13710,2876 13782,2843 13853,2811 13925,2763 13997,2731 14069,2699 14141,2667 14212,2618 14284,2586 14356,2554 14428,2506 14500,2474 14571,2442 14643,2409 14715,2361 14787,2329"/>
 <path fill="none" stroke="rgb(0,69,134)" stroke-width="80" stroke-linejoin="round" d="M 2225,7954 L 2260,7937 2296,7921 2332,7905 2368,7889 2404,7873 2440,7857 2476,7841 2512,7825 2548,7809 2583,7793 2619,7777 2655,7761 2691,7745 2727,7728 2763,7712 2799,7696 2835,7680 2871,7664 2907,7648 2942,7632 2978,7616 3014,7600 3050,7584 3086,7568 3122,7552 3158,7536 3194,7520 3230,7503 3265,7487 3301,7471 3373,7439 3445,7407 3517,7375 3589,7343 3660,7311 3732,7278 3804,7246 3876,7214 3947,7182 4019,7150 4091,7118 4163,7086 4235,7053 4306,7021 4378,6989 4450,6957 4522,6925 4594,6893 4665,6861 4737,6828 4809,6796 4881,6764 4953,6732 5024,6700 5096,6668 5168,6636 5240,6603 5311,6571 5383,6539 5455,6507 5527,6475 5599,6443 5670,6411 5742,6378 5814,6346 5886,6314 5958,6282 6029,6250 6101,6218 6173,6186 6245,6153 6317,6121 6388,6089 6460,6057 6532,6025 6604,5993 6675,5961 6747,5928 6819,5896 6891,5864 6963,5832 7034,5800 7106,5768 7178,5735 7250,5703 7322,5671 7393,5639 7465,5607 7537,5575 7609,5543 7681,5510 7752,5478 7824,5446 7896,5414 7968,5382 8039,5350 8111,5318 8183,5285 8255,5253 8327,5221 8398,5189 8470,5157 8542,5125 8614,5093 8686,5060 8757,5028 8829,4996 8901,4964 8973,4932 9045,4900 9116,4869 9188,4836 9260,4804 9332,4772 9404,4740 9475,4708 9547,4676 9619,4644 9691,4611 9762,4579 9834,4547 9906,4515 9977,4483 10049,4451 10120,4419 10192,4386 10264,4354 10336,4322 10408,4290 10479,4258 10551,4226 10623,4194 10695,4161 10767,4129 10838,4097 10910,4065 10982,4033 11054,4001 11125,3969 11197,3936 11269,3904 11341,3872 11413,3840 11484,3808 11556,3776 11628,3744 11700,3711 11772,3679 11843,3647 11915,3615 11987,3583 12059,3551 12131,3518 12202,3486 12274,3454 12346,3422 12418,3390 12489,3358 12561,3326 12633,3293 12705,3261 12777,3229 12848,3197 12920,3165 12992,3133 13064,3101 13136,3068 13207,3036 13279,3004 13351,2972 13423,2940 13495,2908 13566,2876 13638,2843 13710,2811 13782,2779 13853,2747 13925,2715 13997,2683 14069,2651 14141,2618 14212,2586 14284,2554 14356,2522 14428,2490 14500,2458 14571,2426 14643,2393 14715,2361 14787,2329"/>
 <text class="SVGTextShape"><tspan class="TextParagraph" font-family="Liberation Sans, sans-serif" font-size="353px" font-weight="400"><tspan class="TextPosition" x="2128" y="8522"><tspan fill="rgb(0,0,0)" stroke="none">0</tspan></tspan></tspan></text>
 <text class="SVGTextShape"><tspan class="TextParagraph" font-family="Liberation Sans, sans-serif" font-size="353px" font-weight="400"><tspan class="TextPosition" x="3825" y="8522"><tspan fill="rgb(0,0,0)" stroke="none">50</tspan></tspan></tspan></text>
 <text class="SVGTextShape"><tspan class="TextParagraph" font-family="Liberation Sans, sans-serif" font-size="353px" font-weight="400"><tspan class="TextPosition" x="5523" y="8522"><tspan fill="rgb(0,0,0)" stroke="none">100</tspan></tspan></tspan></text>
 <text class="SVGTextShape"><tspan class="TextParagraph" font-family="Liberation Sans, sans-serif" font-size="353px" font-weight="400"><tspan class="TextPosition" x="7318" y="8522"><tspan fill="rgb(0,0,0)" stroke="none">150</tspan></tspan></tspan></text>
 <text class="SVGTextShape"><tspan class="TextParagraph" font-family="Liberation Sans, sans-serif" font-size="353px" font-weight="400"><tspan class="TextPosition" x="9113" y="8522"><tspan fill="rgb(0,0,0)" stroke="none">200</tspan></tspan></tspan></text>
 <text class="SVGTextShape"><tspan class="TextParagraph" font-family="Liberation Sans, sans-serif" font-size="353px" font-weight="400"><tspan class="TextPosition" x="10907" y="8522"><tspan fill="rgb(0,0,0)" stroke="none">250</tspan></tspan></tspan></text>
 <text class="SVGTextShape"><tspan class="TextParagraph" font-family="Liberation Sans, sans-serif" font-size="353px" font-weight="400"><tspan class="TextPosition" x="12702" y="8522"><tspan fill="rgb(0,0,0)" stroke="none">300</tspan></tspan></tspan></text>
 <text class="SVGTextShape"><tspan class="TextParagraph" font-family="Liberation Sans, sans-serif" font-size="353px" font-weight="400"><tspan class="TextPosition" x="14497" y="8522"><tspan fill="rgb(0,0,0)" stroke="none">350</tspan></tspan></tspan></text>
 <text class="SVGTextShape"><tspan class="TextParagraph" font-family="Liberation Sans, sans-serif" font-size="353px" font-weight="400"><tspan class="TextPosition" x="16292" y="8522"><tspan fill="rgb(0,0,0)" stroke="none">400</tspan></tspan></tspan></text>
 <text class="SVGTextShape"><tspan class="TextParagraph" font-family="Liberation Sans, sans-serif" font-size="353px" font-weight="400"><tspan class="TextPosition" x="1781" y="8079"><tspan fill="rgb(0,0,0)" stroke="none">0</tspan></tspan></tspan></text>
 <text class="SVGTextShape"><tspan class="TextParagraph" font-family="Liberation Sans, sans-serif" font-size="353px" font-weight="400"><tspan class="TextPosition" x="1587" y="7275"><tspan fill="rgb(0,0,0)" stroke="none">50</tspan></tspan></tspan></text>
 <text class="SVGTextShape"><tspan class="TextParagraph" font-family="Liberation Sans, sans-serif" font-size="353px" font-weight="400"><tspan class="TextPosition" x="1393" y="6471"><tspan fill="rgb(0,0,0)" stroke="none">100</tspan></tspan></tspan></text>
 <text class="SVGTextShape"><tspan class="TextParagraph" font-family="Liberation Sans, sans-serif" font-size="353px" font-weight="400"><tspan class="TextPosition" x="1393" y="5668"><tspan fill="rgb(0,0,0)" stroke="none">150</tspan></tspan></tspan></text>
 <text class="SVGTextShape"><tspan class="TextParagraph" font-family="Liberation Sans, sans-serif" font-size="353px" font-weight="400"><tspan class="TextPosition" x="1393" y="4864"><tspan fill="rgb(0,0,0)" stroke="none">200</tspan></tspan></tspan></text>
 <text class="SVGTextShape"><tspan class="TextParagraph" font-family="Liberation Sans, sans-serif" font-size="353px" font-weight="400"><tspan class="TextPosition" x="1393" y="4060"><tspan fill="rgb(0,0,0)" stroke="none">250</tspan></tspan></tspan></text>
 <text class="SVGTextShape"><tspan class="TextParagraph" font-family="Liberation Sans, sans-serif" font-size="353px" font-weight="400"><tspan class="TextPosition" x="1393" y="3257"><tspan fill="rgb(0,0,0)" stroke="none">300</tspan></tspan></tspan></text>
 <text class="SVGTextShape"><tspan class="TextParagraph" font-family="Liberation Sans, sans-serif" font-size="353px" font-weight="400"><tspan class="TextPosition" x="1393" y="2453"><tspan fill="rgb(0,0,0)" stroke="none">350</tspan></tspan></tspan></text>
 <text class="SVGTextShape"><tspan class="TextParagraph" font-family="Liberation Sans, sans-serif" font-size="353px" font-weight="400"><tspan class="TextPosition" x="1393" y="1649"><tspan fill="rgb(0,0,0)" stroke="none">400</tspan></tspan></tspan></text>
 <text class="SVGTextShape"><tspan class="TextParagraph" font-family="Liberation Sans, sans-serif" font-size="459px" font-weight="400"><tspan class="TextPosition" x="8118" y="892"><tspan fill="rgb(0,0,0)" stroke="none">Modifier Functions</tspan></tspan></tspan></text>
 <path fill="none" stroke="rgb(0,69,134)" stroke-width="80" stroke-linejoin="round" d="M 17389,3149 L 18189,3149"/>
 <path fill="none" stroke="rgb(255,66,14)" stroke-width="80" stroke-linejoin="round" d="M 17389,4028 L 18189,4028"/>
 <path fill="none" stroke="rgb(255,211,32)" stroke-width="80" stroke-linejoin="round" d="M 17389,4906 L 18189,4906"/>
 <path fill="none" stroke="rgb(87,157,28)" stroke-width="80" stroke-linejoin="round" d="M 17389,5785 L 18189,5785"/>
 <text class="SVGTextShape"><tspan class="TextParagraph" font-family="Liberation Sans, sans-serif" font-size="353px" font-weight="400"><tspan class="TextPosition" x="18289" y="3292"><tspan fill="rgb(0,0,0)" stroke="none">0</tspan></tspan></tspan><tspan class="TextParagraph" font-family="Liberation Sans, sans-serif" font-size="353px" font-weight="400"><tspan class="TextPosition" x="18289" y="3681"><tspan fill="rgb(0,0,0)" stroke="none">Linear</tspan></tspan></tspan></text>
 <text class="SVGTextShape"><tspan class="TextParagraph" font-family="Liberation Sans, sans-serif" font-size="353px" font-weight="400"><tspan class="TextPosition" x="18289" y="4171"><tspan fill="rgb(0,0,0)" stroke="none">1</tspan></tspan></tspan><tspan class="TextParagraph" font-family="Liberation Sans, sans-serif" font-size="353px" font-weight="400"><tspan class="TextPosition" x="18289" y="4560"><tspan fill="rgb(0,0,0)" stroke="none">Squared</tspan></tspan></tspan></text>
 <text class="SVGTextShape"><tspan class="TextParagraph" font-family="Liberation Sans, sans-serif" font-size="353px" font-weight="400"><tspan class="TextPosition" x="18289" y="5438"><tspan fill="rgb(0,0,0)" stroke="none">Tan()</tspan></tspan></tspan></text>
 <text class="SVGTextShape"><tspan class="TextParagraph" font-family="Liberation Sans, sans-serif" font-size="353px" font-weight="400"><tspan class="TextPosition" x="18289" y="5928"><tspan fill="rgb(0,0,0)" stroke="none">3</tspan></tspan></tspan><tspan class="TextParagraph" font-family="Liberation Sans, sans-serif" font-size="353px" font-weight="400"><tspan class="TextPosition" x="18289" y="6317"><tspan fill="rgb(0,0,0)" stroke="none">Squared</tspan></tspan></tspan><tspan class="TextParagraph" font-family="Liberation Sans, sans-serif" font-size="353px" font-weight="400"><tspan class="TextPosition" x="18289" y="6706"><tspan fill="rgb(0,0,0)" stroke="none">Tan()</tspan></tspan></tspan></text>
 <text class="SVGTextShape"><tspan class="TextParagraph" font-family="Liberation Sans, sans-serif" font-size="318px" font-weight="400"><tspan class="TextPosition" x="8587" y="9168"><tspan fill="rgb(0,0,0)" stroke="none">x inputs</tspan></tspan></tspan></text>
 <text class="SVGTextShape" transform="rotate(-90 828 5474)"><tspan class="TextParagraph" font-family="Liberation Sans, sans-serif" font-size="318px" font-weight="400"><tspan class="TextPosition" x="828" y="5474"><tspan fill="rgb(0,0,0)" stroke="none">result y</tspan></tspan></tspan></text>
</svg>