<?xml version="1.0" encoding="UTF-8" standalone="no"?>
<svg
   width="234mm"
   height="160mm"
   viewBox="0 0 23400 16000"
   version="1.1"
   stroke-width="28.222"
   stroke-linejoin="round"
   xml:space="preserve"
   id="svg134"
   sodipodi:docname="modifierFunctions.svg"
   inkscape:version="1.3.2 (1:1.3.2+202311252150+091e20ef0f)"
   xmlns:inkscape="http://www.inkscape.org/namespaces/inkscape"
   xmlns:sodipodi="http://sodipodi.sourceforge.net/DTD/sodipodi-0.dtd"
   xmlns:xlink="http://www.w3.org/1999/xlink"
   xmlns="http://www.w3.org/2000/svg"
   xmlns:svg="http://www.w3.org/2000/svg"><defs
   id="defs134"><marker
     style="overflow:visible"
     id="Triangle"
     refX="0"
     refY="0"
     orient="auto-start-reverse"
     inkscape:stockid="Triangle arrow"
     markerWidth="1"
     markerHeight="1"
     viewBox="0 0 1 1"
     inkscape:isstock="true"
     inkscape:collect="always"
     preserveAspectRatio="xMidYMid"><path
       transform="scale(0.5)"
       style="fill:context-stroke;fill-rule:evenodd;stroke:context-stroke;stroke-width:1pt"
       d="M 5.77,0 -2.88,5 V -5 Z"
       id="path135" /></marker><linearGradient
     id="linearGradient136"
     inkscape:collect="always"><stop
       style="stop-color:#000000;stop-opacity:1;"
       offset="0"
       id="stop136" /><stop
       style="stop-color:#ff0000;stop-opacity:1"
       offset="1"
       id="stop137" /></linearGradient><rect
     x="31.515913"
     y="551.87226"
     width="120.94913"
     height="46.171796"
     id="rect136" /><rect
     x="48.578364"
     y="553.81734"
     width="131.61152"
     height="27.564793"
     id="rect135" /><linearGradient
     inkscape:collect="always"
     xlink:href="#linearGradient136"
     id="linearGradient137"
     x1="128.06342"
     y1="552.73193"
     x2="157.0269"
     y2="523.54254"
     gradientUnits="userSpaceOnUse" /><marker
     style="overflow:visible"
     id="Triangle-1"
     refX="0"
     refY="0"
     orient="auto-start-reverse"
     inkscape:stockid="Triangle arrow"
     markerWidth="1"
     markerHeight="1"
     viewBox="0 0 1 1"
     inkscape:isstock="true"
     inkscape:collect="always"
     preserveAspectRatio="xMidYMid"><path
       transform="scale(0.5)"
       style="fill:context-stroke;fill-rule:evenodd;stroke:context-stroke;stroke-width:1pt"
       d="M 5.77,0 -2.88,5 V -5 Z"
       id="path135-8" /></marker><rect
     x="31.515913"
     y="551.87225"
     width="120.94913"
     height="46.171795"
     id="rect136-7" /></defs><sodipodi:namedview
   id="namedview134"
   pagecolor="#ffffff"
   bordercolor="#999999"
   borderopacity="1"
   inkscape:showpageshadow="0"
   inkscape:pageopacity="0"
   inkscape:pagecheckerboard="0"
   inkscape:deskcolor="#d1d1d1"
   inkscape:document-units="mm"
   inkscape:zoom="0.84429758"
   inkscape:cx="293.7353"
   inkscape:cy="313.87038"
   inkscape:window-width="1860"
   inkscape:window-height="1016"
   inkscape:window-x="60"
   inkscape:window-y="27"
   inkscape:window-maximized="1"
   inkscape:current-layer="svg134" />
 
 <rect
   style="fill:#ffffff;stroke:#f9f9f9;stroke-width:45.0934;stroke-linecap:round"
   id="rect1"
   width="23327.408"
   height="15932.211"
   x="22.546673"
   y="22.546673" /><path
   fill="none"
   stroke="rgb(179,179,179)"
   stroke-linejoin="round"
   d="M 12533,14057 L 2564,14057 2564,1741 22503,1741 22503,14057 12533,14057 Z"
   id="path2" />
 <path
   fill="none"
   stroke="rgb(179,179,179)"
   stroke-linejoin="round"
   d="M 22503,14056 L 2564,14056"
   id="path3" />
 <path
   fill="none"
   stroke="rgb(179,179,179)"
   stroke-linejoin="round"
   d="M 22503,12516 L 2564,12516"
   id="path4" />
 <path
   fill="none"
   stroke="rgb(179,179,179)"
   stroke-linejoin="round"
   d="M 22503,10976 L 2564,10976"
   id="path5" />
 <path
   fill="none"
   stroke="rgb(179,179,179)"
   stroke-linejoin="round"
   d="M 22503,9437 L 2564,9437"
   id="path6" />
 <path
   fill="none"
   stroke="rgb(179,179,179)"
   stroke-linejoin="round"
   d="M 22503,7898 L 2564,7898"
   id="path7" />
 <path
   fill="none"
   stroke="rgb(179,179,179)"
   stroke-linejoin="round"
   d="M 22503,6358 L 2564,6358"
   id="path8" />
 <path
   fill="none"
   stroke="rgb(179,179,179)"
   stroke-linejoin="round"
   d="M 22503,4819 L 2564,4819"
   id="path9" />
 <path
   fill="none"
   stroke="rgb(179,179,179)"
   stroke-linejoin="round"
   d="M 22503,3279 L 2564,3279"
   id="path10" />
 <path
   fill="none"
   stroke="rgb(179,179,179)"
   stroke-linejoin="round"
   d="M 22503,1740 L 2564,1740"
   id="path11" />
 <path
   fill="none"
   stroke="rgb(179,179,179)"
   stroke-linejoin="round"
   d="M 2564,14206 L 2564,14056"
   id="path12" />
 <path
   fill="none"
   stroke="rgb(179,179,179)"
   stroke-linejoin="round"
   d="M 2564,14206 L 2564,14056"
   id="path13" />
 <path
   fill="none"
   stroke="rgb(179,179,179)"
   stroke-linejoin="round"
   d="M 5056,14206 L 5056,14056"
   id="path14" />
 <path
   fill="none"
   stroke="rgb(179,179,179)"
   stroke-linejoin="round"
   d="M 5056,14206 L 5056,14056"
   id="path15" />
 <path
   fill="none"
   stroke="rgb(179,179,179)"
   stroke-linejoin="round"
   d="M 7549,14206 L 7549,14056"
   id="path16" />
 <path
   fill="none"
   stroke="rgb(179,179,179)"
   stroke-linejoin="round"
   d="M 7549,14206 L 7549,14056"
   id="path17" />
 <path
   fill="none"
   stroke="rgb(179,179,179)"
   stroke-linejoin="round"
   d="M 10041,14206 L 10041,14056"
   id="path18" />
 <path
   fill="none"
   stroke="rgb(179,179,179)"
   stroke-linejoin="round"
   d="M 10041,14206 L 10041,14056"
   id="path19" />
 <path
   fill="none"
   stroke="rgb(179,179,179)"
   stroke-linejoin="round"
   d="M 12533,14206 L 12533,14056"
   id="path20" />
 <path
   fill="none"
   stroke="rgb(179,179,179)"
   stroke-linejoin="round"
   d="M 12533,14206 L 12533,14056"
   id="path21" />
 <path
   fill="none"
   stroke="rgb(179,179,179)"
   stroke-linejoin="round"
   d="M 15025,14206 L 15025,14056"
   id="path22" />
 <path
   fill="none"
   stroke="rgb(179,179,179)"
   stroke-linejoin="round"
   d="M 15025,14206 L 15025,14056"
   id="path23" />
 <path
   fill="none"
   stroke="rgb(179,179,179)"
   stroke-linejoin="round"
   d="M 17518,14206 L 17518,14056"
   id="path24" />
 <path
   fill="none"
   stroke="rgb(179,179,179)"
   stroke-linejoin="round"
   d="M 17518,14206 L 17518,14056"
   id="path25" />
 <path
   fill="none"
   stroke="rgb(179,179,179)"
   stroke-linejoin="round"
   d="M 20010,14206 L 20010,14056"
   id="path26" />
 <path
   fill="none"
   stroke="rgb(179,179,179)"
   stroke-linejoin="round"
   d="M 20010,14206 L 20010,14056"
   id="path27" />
 <path
   fill="none"
   stroke="rgb(179,179,179)"
   stroke-linejoin="round"
   d="M 22503,14206 L 22503,14056"
   id="path28" />
 <path
   fill="none"
   stroke="rgb(179,179,179)"
   stroke-linejoin="round"
   d="M 22503,14206 L 22503,14056"
   id="path29" />
 <path
   fill="none"
   stroke="rgb(179,179,179)"
   stroke-linejoin="round"
   d="M 2564,14056 L 22503,14056"
   id="path30" />
 <path
   fill="none"
   stroke="rgb(179,179,179)"
   stroke-linejoin="round"
   d="M 2414,14056 L 2564,14056"
   id="path31" />
 <path
   fill="none"
   stroke="rgb(179,179,179)"
   stroke-linejoin="round"
   d="M 2414,14056 L 2564,14056"
   id="path32" />
 <path
   fill="none"
   stroke="rgb(179,179,179)"
   stroke-linejoin="round"
   d="M 2414,12516 L 2564,12516"
   id="path33" />
 <path
   fill="none"
   stroke="rgb(179,179,179)"
   stroke-linejoin="round"
   d="M 2414,12516 L 2564,12516"
   id="path34" />
 <path
   fill="none"
   stroke="rgb(179,179,179)"
   stroke-linejoin="round"
   d="M 2414,10976 L 2564,10976"
   id="path35" />
 <path
   fill="none"
   stroke="rgb(179,179,179)"
   stroke-linejoin="round"
   d="M 2414,10976 L 2564,10976"
   id="path36" />
 <path
   fill="none"
   stroke="rgb(179,179,179)"
   stroke-linejoin="round"
   d="M 2414,9437 L 2564,9437"
   id="path37" />
 <path
   fill="none"
   stroke="rgb(179,179,179)"
   stroke-linejoin="round"
   d="M 2414,9437 L 2564,9437"
   id="path38" />
 <path
   fill="none"
   stroke="rgb(179,179,179)"
   stroke-linejoin="round"
   d="M 2414,7898 L 2564,7898"
   id="path39" />
 <path
   fill="none"
   stroke="rgb(179,179,179)"
   stroke-linejoin="round"
   d="M 2414,7898 L 2564,7898"
   id="path40" />
 <path
   fill="none"
   stroke="rgb(179,179,179)"
   stroke-linejoin="round"
   d="M 2414,6358 L 2564,6358"
   id="path41" />
 <path
   fill="none"
   stroke="rgb(179,179,179)"
   stroke-linejoin="round"
   d="M 2414,6358 L 2564,6358"
   id="path42" />
 <path
   fill="none"
   stroke="rgb(179,179,179)"
   stroke-linejoin="round"
   d="M 2414,4819 L 2564,4819"
   id="path43" />
 <path
   fill="none"
   stroke="rgb(179,179,179)"
   stroke-linejoin="round"
   d="M 2414,4819 L 2564,4819"
   id="path44" />
 <path
   fill="none"
   stroke="rgb(179,179,179)"
   stroke-linejoin="round"
   d="M 2414,3279 L 2564,3279"
   id="path45" />
 <path
   fill="none"
   stroke="rgb(179,179,179)"
   stroke-linejoin="round"
   d="M 2414,3279 L 2564,3279"
   id="path46" />
 <path
   fill="none"
   stroke="rgb(179,179,179)"
   stroke-linejoin="round"
   d="M 2414,1740 L 2564,1740"
   id="path47" />
 <path
   fill="none"
   stroke="rgb(179,179,179)"
   stroke-linejoin="round"
   d="M 2414,1740 L 2564,1740"
   id="path48" />
 <path
   fill="none"
   stroke="rgb(179,179,179)"
   stroke-linejoin="round"
   d="M 2564,14056 L 2564,1740"
   id="path49" />
 <rect
   style="fill:#4d4d4d;stroke:#4d4d4d;stroke-width:84.0411;stroke-linecap:round"
   id="rect134"
   width="2364.0879"
   height="326.57477"
   x="2760.219"
   y="13793.544" /><path
   fill="none"
   stroke="rgb(87,157,28)"
   stroke-width="80"
   stroke-linejoin="round"
   d="M 2564,14056 L 2663,14055 2763,14055 2863,14055 2962,14055 3062,14055 3162,14055 3261,14055 3361,14054 3461,14054 3561,14053 3660,14053 3760,14052 3860,14051 3959,14050 4059,14049 4159,14047 4258,14046 4358,14044 4458,14042 4558,14039 4657,14037 4757,14034 4857,14031 4956,14028 5056,14024 5156,14020 5255,14016 5355,14011 5455,14006 5555,14001 5654,13996 5754,13990 5854,13983 5953,13976 6053,13969 6153,13962 6252,13954 6352,13945 6452,13936 6552,13927 6651,13917 6751,13907 6851,13896 6950,13884 7050,13872 7150,13860 7249,13847 7349,13833 7449,13819 7549,13804 7648,13789 7748,13773 7848,13756 7947,13739 8047,13721 8147,13702 8246,13683 8346,13663 8446,13642 8546,13621 8645,13599 8745,13576 8845,13552 8944,13528 9044,13503 9144,13477 9243,13450 9343,13422 9443,13394 9543,13365 9642,13335 9742,13304 9842,13272 9941,13239 10041,13205 10141,13171 10240,13135 10340,13099 10440,13061 10540,13023 10639,12983 10739,12943 10839,12901 10938,12859 11038,12815 11138,12770 11237,12725 11337,12678 11437,12630 11537,12580 11636,12530 11735,12478 11835,12426 11934,12372 12034,12317 12134,12260 12233,12202 12333,12143 12433,12083 12533,12021 12632,11958 12732,11893 12832,11827 12931,11760 13031,11691 13131,11620 13230,11548 13330,11475 13430,11399 13530,11323 13629,11244 13729,11164 13829,11082 13928,10998 14028,10912 14128,10825 14227,10735 14327,10644 14427,10550 14527,10455 14626,10357 14726,10257 14826,10155 14925,10051 15025,9944 15125,9835 15224,9723 15324,9609 15424,9492 15524,9372 15623,9249 15723,9124 15823,8995 15922,8863 16022,8728 16122,8590 16221,8448 16321,8302 16421,8152 16521,7999 16620,7842 16720,7680 16820,7514 16919,7342 17019,7166 17119,6985 17218,6798 17318,6606 17418,6407 17518,6203 17617,5992 17717,5774 17817,5548 17916,5315 18016,5074 18116,4824 18215,4564 18315,4295 18415,4016 18515,3725 18614,3423 18714,3279 18814,3279 18913,3279 19013,3279 19113,3279 19212,3279 19312,3279 19412,3279 19512,3279 19611,3279 19711,3279 19811,3279 19910,3279 20010,3279"
   id="path50" />
 <path
   fill="none"
   stroke="rgb(255,211,32)"
   stroke-width="80"
   stroke-linejoin="round"
   d="M 2564,14056 L 2663,14055 2763,14054 2863,14052 2962,14050 3062,14047 3162,14043 3261,14038 3361,14033 3461,14027 3561,14020 3660,14013 3760,14005 3860,13996 3959,13987 4059,13976 4159,13965 4258,13954 4358,13941 4458,13928 4558,13915 4657,13900 4757,13885 4857,13869 4956,13853 5056,13836 5156,13818 5255,13799 5355,13780 5455,13759 5555,13739 5654,13717 5754,13695 5854,13672 5953,13648 6053,13624 6153,13599 6252,13573 6352,13547 6452,13520 6552,13492 6651,13463 6751,13434 6851,13404 6950,13373 7050,13342 7150,13310 7249,13277 7349,13243 7449,13209 7549,13174 7648,13138 7748,13101 7848,13064 7947,13026 8047,12987 8147,12948 8246,12908 8346,12867 8446,12825 8546,12783 8645,12740 8745,12696 8845,12651 8944,12605 9044,12559 9144,12512 9243,12464 9343,12416 9443,12366 9543,12316 9642,12265 9742,12214 9842,12161 9941,12108 10041,12053 10141,11998 10240,11943 10340,11886 10440,11828 10540,11770 10639,11711 10739,11650 10839,11589 10938,11528 11038,11465 11138,11401 11237,11336 11337,11271 11437,11204 11537,11137 11636,11068 11735,10999 11835,10928 11934,10857 12034,10784 12134,10711 12233,10636 12333,10560 12433,10484 12533,10406 12632,10327 12732,10247 12832,10165 12931,10083 13031,9999 13131,9914 13230,9828 13330,9740 13430,9651 13530,9561 13629,9469 13729,9376 13829,9282 13928,9186 14028,9089 14128,8990 14227,8889 14327,8787 14427,8684 14527,8578 14626,8471 14726,8362 14826,8251 14925,8139 15025,8024 15125,7909 15224,7790 15324,7669 15424,7547 15524,7422 15623,7294 15723,7165 15823,7032 15922,6898 16022,6761 16122,6621 16221,6478 16321,6332 16421,6184 16521,6032 16620,5878 16720,5719 16820,5558 16919,5393 17019,5224 17119,5052 17218,4875 17318,4695 17418,4510 17518,4320 17617,4126 17717,3927 17817,3723 17916,3514 18016,3299 18116,3279 18215,3279 18315,3279 18415,3279 18515,3279 18614,3279 18714,3279 18814,3279 18913,3279 19013,3279 19113,3279 19212,3279 19312,3279 19412,3279 19512,3279 19611,3279 19711,3279 19811,3279 19910,3279 20010,3279"
   id="path51" />
 <path
   fill="none"
   stroke="rgb(255,66,14)"
   stroke-width="80"
   stroke-linejoin="round"
   d="M 2564,14056 L 2663,13994 2763,13932 2863,13871 2962,13809 3062,13747 3162,13686 3261,13624 3361,13562 3461,13501 3561,13439 3660,13377 3760,13315 3860,13253 3959,13191 4059,13129 4159,13067 4258,13005 4358,12943 4458,12881 4558,12818 4657,12756 4757,12693 4857,12631 4956,12568 5056,12505 5156,12442 5255,12379 5355,12316 5455,12253 5555,12190 5654,12126 5754,12063 5854,11999 5953,11935 6053,11871 6153,11807 6252,11742 6352,11678 6452,11613 6552,11548 6651,11483 6751,11418 6851,11353 6950,11287 7050,11221 7150,11155 7249,11089 7349,11023 7449,10956 7549,10890 7648,10823 7748,10755 7848,10688 7947,10620 8047,10552 8147,10484 8246,10416 8346,10347 8446,10278 8546,10208 8645,10139 8745,10069 8845,9999 8944,9928 9044,9858 9144,9787 9243,9715 9343,9643 9443,9571 9543,9499 9642,9426 9742,9353 9842,9280 9941,9206 10041,9131 10141,9057 10240,8982 10340,8906 10440,8830 10540,8754 10639,8677 10739,8600 10839,8523 10938,8445 11038,8366 11138,8287 11237,8208 11337,8128 11437,8047 11537,7967 11636,7886 11735,7804 11835,7721 11934,7638 12034,7554 12134,7470 12233,7385 12333,7300 12433,7214 12533,7127 12632,7039 12732,6951 12832,6863 12931,6773 13031,6683 13131,6593 13230,6501 13330,6409 13430,6316 13530,6222 13629,6128 13729,6032 13829,5936 13928,5839 14028,5741 14128,5643 14227,5543 14327,5443 14427,5341 14527,5239 14626,5136 14726,5031 14826,4926 14925,4820 15025,4712 15125,4604 15224,4495 15324,4384 15424,4272 15524,4159 15623,4045 15723,3930 15823,3813 15922,3695 16022,3576 16122,3456 16221,3334 16321,3279 16421,3279 16521,3279 16620,3279 16720,3279 16820,3279 16919,3279 17019,3279 17119,3279 17218,3279 17318,3279 17418,3279 17518,3279 17617,3279 17717,3279 17817,3279 17916,3279 18016,3279 18116,3279 18215,3279 18315,3279 18415,3279 18515,3279 18614,3279 18714,3279 18814,3279 18913,3279 19013,3279 19113,3279 19212,3279 19312,3279 19412,3279 19512,3279 19611,3279 19711,3279 19811,3279 19910,3279 20010,3279"
   id="path52" />
 <path
   fill="none"
   stroke="rgb(0,69,134)"
   stroke-width="80"
   stroke-linejoin="round"
   d="M 2564,14056 L 2663,14055 2763,14054 2863,14052 2962,14050 3062,14047 3162,14043 3261,14038 3361,14033 3461,14027 3561,14020 3660,14013 3760,14005 3860,13996 3959,13987 4059,13976 4159,13965 4258,13954 4358,13941 4458,13928 4558,13915 4657,13900 4757,13885 4857,13869 4956,13853 5056,13836 5156,13818 5255,13799 5355,13780 5455,13760 5555,13739 5654,13717 5754,13695 5854,13672 5953,13649 6053,13624 6153,13599 6252,13574 6352,13547 6452,13520 6552,13492 6651,13464 6751,13435 6851,13405 6950,13374 7050,13343 7150,13311 7249,13278 7349,13245 7449,13211 7549,13176 7648,13140 7748,13104 7848,13067 7947,13029 8047,12991 8147,12952 8246,12912 8346,12872 8446,12830 8546,12789 8645,12746 8745,12703 8845,12659 8944,12614 9044,12569 9144,12523 9243,12476 9343,12428 9443,12380 9543,12331 9642,12282 9742,12231 9842,12180 9941,12128 10041,12076 10141,12023 10240,11969 10340,11914 10440,11859 10540,11803 10639,11747 10739,11689 10839,11631 10938,11572 11038,11513 11138,11453 11237,11392 11337,11330 11437,11268 11537,11205 11636,11141 11735,11077 11835,11012 11934,10946 12034,10879 12134,10812 12233,10744 12333,10676 12433,10606 12533,10536 12632,10466 12732,10394 12832,10322 12931,10249 13031,10176 13131,10101 13230,10026 13330,9951 13430,9874 13530,9797 13629,9720 13729,9641 13829,9562 13928,9482 14028,9401 14128,9320 14227,9238 14327,9155 14427,9072 14527,8988 14626,8903 14726,8818 14826,8731 14925,8644 15025,8557 15125,8469 15224,8379 15324,8290 15424,8199 15524,8108 15623,8016 15723,7925 15823,7831 15922,7738 16022,7643 16122,7547 16221,7451 16321,7355 16421,7257 16521,7159 16620,7060 16720,6961 16820,6860 16919,6759 17019,6658 17119,6555 17218,6452 17318,6348 17418,6244 17518,6138 17617,6033 17717,5926 17817,5819 17916,5711 18016,5602 18116,5492 18215,5382 18315,5271 18415,5160 18515,5047 18614,4935 18714,4821 18814,4706 18913,4591 19013,4476 19113,4359 19212,4242 19312,4124 19412,4005 19512,3886 19611,3766 19711,3645 19811,3524 19910,3402 20010,3279"
   id="path53" />
 <path
   fill="none"
   stroke="rgb(126,0,33)"
   stroke-width="80"
   stroke-linejoin="round"
   d="M 2564,14056 L 2663,13994 2763,13932 2863,13871 2962,13809 3062,13748 3162,13686 3261,13624 3361,13563 3461,13501 3561,13440 3660,13378 3760,13316 3860,13255 3959,13193 4059,13132 4159,13070 4258,13009 4358,12947 4458,12885 4558,12824 4657,12762 4757,12701 4857,12639 4956,12577 5056,12516 5156,12454 5255,12393 5355,12331 5455,12270 5555,12208 5654,12146 5754,12085 5854,12023 5953,11962 6053,11900 6153,11838 6252,11777 6352,11715 6452,11654 6552,11592 6651,11531 6751,11469 6851,11407 6950,11346 7050,11284 7150,11223 7249,11161 7349,11099 7449,11038 7549,10976 7648,10915 7748,10853 7848,10791 7947,10730 8047,10668 8147,10607 8246,10545 8346,10484 8446,10422 8546,10360 8645,10299 8745,10237 8845,10176 8944,10114 9044,10052 9144,9991 9243,9929 9343,9868 9443,9806 9543,9745 9642,9683 9742,9621 9842,9560 9941,9498 10041,9437 10141,9375 10240,9313 10340,9252 10440,9190 10540,9129 10639,9067 10739,9006 10839,8944 10938,8882 11038,8821 11138,8759 11237,8698 11337,8636 11437,8574 11537,8513 11636,8451 11735,8390 11835,8328 11934,8267 12034,8205 12134,8143 12233,8082 12333,8020 12433,7960 12533,7898 12632,7836 12732,7775 12832,7713 12931,7652 13031,7590 13131,7528 13230,7467 13330,7405 13430,7344 13530,7282 13629,7221 13729,7159 13829,7097 13928,7036 14028,6974 14128,6913 14227,6851 14327,6789 14427,6728 14527,6666 14626,6605 14726,6543 14826,6482 14925,6420 15025,6358 15125,6297 15224,6235 15324,6174 15424,6112 15524,6050 15623,5989 15723,5927 15823,5866 15922,5804 16022,5743 16122,5681 16221,5619 16321,5558 16421,5496 16521,5435 16620,5373 16720,5311 16820,5250 16919,5188 17019,5127 17119,5065 17218,5004 17318,4942 17418,4880 17518,4819 17617,4757 17717,4696 17817,4634 17916,4572 18016,4511 18116,4449 18215,4388 18315,4326 18415,4264 18515,4203 18614,4141 18714,4080 18814,4018 18913,3957 19013,3895 19113,3833 19212,3772 19312,3710 19412,3649 19512,3587 19611,3525 19711,3464 19811,3402 19910,3341 20010,3279"
   id="path54" />
 <text
   class="SVGTextShape"
   id="text56"><tspan
     class="TextParagraph"
     font-family="Liberation Sans, sans-serif"
     font-size="353px"
     font-weight="400"
     id="tspan56"><tspan
       class="TextPosition"
       x="2326"
       y="14624"
       id="tspan55"><tspan
         fill="rgb(0,0,0)"
         stroke="none"
         style="white-space: pre"
         id="tspan54">0,0</tspan></tspan></tspan></text>
 <text
   class="SVGTextShape"
   id="text59"><tspan
     class="TextParagraph"
     font-family="Liberation Sans, sans-serif"
     font-size="353px"
     font-weight="400"
     id="tspan59"><tspan
       class="TextPosition"
       x="4725"
       y="14624"
       id="tspan58"><tspan
         fill="rgb(0,0,0)"
         stroke="none"
         style="white-space: pre"
         id="tspan57">50,0</tspan></tspan></tspan></text>
 <text
   class="SVGTextShape"
   id="text62"><tspan
     class="TextParagraph"
     font-family="Liberation Sans, sans-serif"
     font-size="353px"
     font-weight="400"
     id="tspan62"><tspan
       class="TextPosition"
       x="7125"
       y="14624"
       id="tspan61"><tspan
         fill="rgb(0,0,0)"
         stroke="none"
         style="white-space: pre"
         id="tspan60">100,0</tspan></tspan></tspan></text>
 <text
   class="SVGTextShape"
   id="text65"><tspan
     class="TextParagraph"
     font-family="Liberation Sans, sans-serif"
     font-size="353px"
     font-weight="400"
     id="tspan65"><tspan
       class="TextPosition"
       x="9617"
       y="14624"
       id="tspan64"><tspan
         fill="rgb(0,0,0)"
         stroke="none"
         style="white-space: pre"
         id="tspan63">150,0</tspan></tspan></tspan></text>
 <text
   class="SVGTextShape"
   id="text68"><tspan
     class="TextParagraph"
     font-family="Liberation Sans, sans-serif"
     font-size="353px"
     font-weight="400"
     id="tspan68"><tspan
       class="TextPosition"
       x="12110"
       y="14624"
       id="tspan67"><tspan
         fill="rgb(0,0,0)"
         stroke="none"
         style="white-space: pre"
         id="tspan66">200,0</tspan></tspan></tspan></text>
 <text
   class="SVGTextShape"
   id="text71"><tspan
     class="TextParagraph"
     font-family="Liberation Sans, sans-serif"
     font-size="353px"
     font-weight="400"
     id="tspan71"><tspan
       class="TextPosition"
       x="14602"
       y="14624"
       id="tspan70"><tspan
         fill="rgb(0,0,0)"
         stroke="none"
         style="white-space: pre"
         id="tspan69">250,0</tspan></tspan></tspan></text>
 <text
   class="SVGTextShape"
   id="text74"><tspan
     class="TextParagraph"
     font-family="Liberation Sans, sans-serif"
     font-size="353px"
     font-weight="400"
     id="tspan74"><tspan
       class="TextPosition"
       x="17095"
       y="14624"
       id="tspan73"><tspan
         fill="rgb(0,0,0)"
         stroke="none"
         style="white-space: pre"
         id="tspan72">300,0</tspan></tspan></tspan></text>
 <text
   class="SVGTextShape"
   id="text77"><tspan
     class="TextParagraph"
     font-family="Liberation Sans, sans-serif"
     font-size="353px"
     font-weight="400"
     id="tspan77"><tspan
       class="TextPosition"
       x="19587"
       y="14624"
       id="tspan76"><tspan
         fill="rgb(0,0,0)"
         stroke="none"
         style="white-space: pre"
         id="tspan75">350,0</tspan></tspan></tspan></text>
 <text
   class="SVGTextShape"
   id="text80"><tspan
     class="TextParagraph"
     font-family="Liberation Sans, sans-serif"
     font-size="353px"
     font-weight="400"
     id="tspan80"><tspan
       class="TextPosition"
       x="22080"
       y="14624"
       id="tspan79"><tspan
         fill="rgb(0,0,0)"
         stroke="none"
         style="white-space: pre"
         id="tspan78">400,0</tspan></tspan></tspan></text>
 <text
   class="SVGTextShape"
   id="text83"><tspan
     class="TextParagraph"
     font-family="Liberation Sans, sans-serif"
     font-size="353px"
     font-weight="400"
     id="tspan83"><tspan
       class="TextPosition"
       x="1838"
       y="14177"
       id="tspan82"><tspan
         fill="rgb(0,0,0)"
         stroke="none"
         style="white-space: pre"
         id="tspan81">0,0</tspan></tspan></tspan></text>
 <text
   class="SVGTextShape"
   id="text86"><tspan
     class="TextParagraph"
     font-family="Liberation Sans, sans-serif"
     font-size="353px"
     font-weight="400"
     id="tspan86"><tspan
       class="TextPosition"
       x="1653"
       y="12637"
       id="tspan85"><tspan
         fill="rgb(0,0,0)"
         stroke="none"
         style="white-space: pre"
         id="tspan84">50,0</tspan></tspan></tspan></text>
 <text
   class="SVGTextShape"
   id="text89"><tspan
     class="TextParagraph"
     font-family="Liberation Sans, sans-serif"
     font-size="353px"
     font-weight="400"
     id="tspan89"><tspan
       class="TextPosition"
       x="1467"
       y="11097"
       id="tspan88"><tspan
         fill="rgb(0,0,0)"
         stroke="none"
         style="white-space: pre"
         id="tspan87">100,0</tspan></tspan></tspan></text>
 <text
   class="SVGTextShape"
   id="text92"><tspan
     class="TextParagraph"
     font-family="Liberation Sans, sans-serif"
     font-size="353px"
     font-weight="400"
     id="tspan92"><tspan
       class="TextPosition"
       x="1467"
       y="9558"
       id="tspan91"><tspan
         fill="rgb(0,0,0)"
         stroke="none"
         style="white-space: pre"
         id="tspan90">150,0</tspan></tspan></tspan></text>
 <text
   class="SVGTextShape"
   id="text95"><tspan
     class="TextParagraph"
     font-family="Liberation Sans, sans-serif"
     font-size="353px"
     font-weight="400"
     id="tspan95"><tspan
       class="TextPosition"
       x="1467"
       y="8018"
       id="tspan94"><tspan
         fill="rgb(0,0,0)"
         stroke="none"
         style="white-space: pre"
         id="tspan93">200,0</tspan></tspan></tspan></text>
 <text
   class="SVGTextShape"
   id="text98"><tspan
     class="TextParagraph"
     font-family="Liberation Sans, sans-serif"
     font-size="353px"
     font-weight="400"
     id="tspan98"><tspan
       class="TextPosition"
       x="1467"
       y="6478"
       id="tspan97"><tspan
         fill="rgb(0,0,0)"
         stroke="none"
         style="white-space: pre"
         id="tspan96">250,0</tspan></tspan></tspan></text>
 <text
   class="SVGTextShape"
   id="text101"><tspan
     class="TextParagraph"
     font-family="Liberation Sans, sans-serif"
     font-size="353px"
     font-weight="400"
     id="tspan101"><tspan
       class="TextPosition"
       x="1467"
       y="4939"
       id="tspan100"><tspan
         fill="rgb(0,0,0)"
         stroke="none"
         style="white-space: pre"
         id="tspan99">300,0</tspan></tspan></tspan></text>
 <text
   class="SVGTextShape"
   id="text104"><tspan
     class="TextParagraph"
     font-family="Liberation Sans, sans-serif"
     font-size="353px"
     font-weight="400"
     id="tspan104"><tspan
       class="TextPosition"
       x="1467"
       y="3399"
       id="tspan103"><tspan
         fill="rgb(0,0,0)"
         stroke="none"
         style="white-space: pre"
         id="tspan102">350,0</tspan></tspan></tspan></text>
 <text
   class="SVGTextShape"
   id="text107"><tspan
     class="TextParagraph"
     font-family="Liberation Sans, sans-serif"
     font-size="353px"
     font-weight="400"
     id="tspan107"><tspan
       class="TextPosition"
       x="1467"
       y="1860"
       id="tspan106"><tspan
         fill="rgb(0,0,0)"
         stroke="none"
         style="white-space: pre"
         id="tspan105">400,0</tspan></tspan></tspan></text>
 <text
   class="SVGTextShape"
   id="text110"><tspan
     class="TextParagraph"
     font-family="Liberation Sans, sans-serif"
     font-size="459px"
     font-weight="400"
     id="tspan110"><tspan
       class="TextPosition"
       x="9985"
       y="978"
       id="tspan109"><tspan
         fill="rgb(0,0,0)"
         stroke="none"
         style="white-space: pre"
         id="tspan108">Modifier Function</tspan></tspan></tspan></text>
 <path
   fill="none"
   stroke="rgb(126,0,33)"
   stroke-width="80"
   stroke-linejoin="round"
   d="M 4356,15704 L 5156,15704"
   id="path110" />
 <path
   fill="none"
   stroke="rgb(0,69,134)"
   stroke-width="80"
   stroke-linejoin="round"
   d="M 6998,15704 L 7798,15704"
   id="path111" />
 <path
   fill="none"
   stroke="rgb(255,66,14)"
   stroke-width="80"
   stroke-linejoin="round"
   d="M 9984,15704 L 10784,15704"
   id="path112" />
 <path
   fill="none"
   stroke="rgb(255,211,32)"
   stroke-width="80"
   stroke-linejoin="round"
   d="M 12413,15704 L 13213,15704"
   id="path113" />
 <path
   fill="none"
   stroke="rgb(87,157,28)"
   stroke-width="80"
   stroke-linejoin="round"
   d="M 15981,15704 L 16781,15704"
   id="path114" />
 <text
   class="SVGTextShape"
   id="text116"><tspan
     class="TextParagraph"
     font-family="Liberation Sans, sans-serif"
     font-size="353px"
     font-weight="400"
     id="tspan116"><tspan
       class="TextPosition"
       x="5256"
       y="15824"
       id="tspan115"><tspan
         fill="rgb(0,0,0)"
         stroke="none"
         style="white-space: pre"
         id="tspan114">Linear – 0</tspan></tspan></tspan></text><text
   class="SVGTextShape"
   id="text116-3"
   x="-482.44974"
   y="-1880.2208"
   transform="rotate(-34.034028)"><tspan
     class="TextParagraph"
     font-family="'Liberation Sans', sans-serif"
     font-size="353px"
     font-weight="400"
     id="tspan116-6"><tspan
       class="TextPosition"
       x="4773.5498"
       y="13943.779"
       id="tspan115-7"><tspan
         fill="#000000"
         stroke="none"
         style="white-space:pre"
         id="tspan114-5">Linear – 0</tspan></tspan></tspan></text>
 <text
   class="SVGTextShape"
   id="text119"><tspan
     class="TextParagraph"
     font-family="Liberation Sans, sans-serif"
     font-size="353px"
     font-weight="400"
     id="tspan119"><tspan
       class="TextPosition"
       x="7898"
       y="15824"
       id="tspan118"><tspan
         fill="rgb(0,0,0)"
         stroke="none"
         style="white-space: pre"
         id="tspan117">Squared – 1</tspan></tspan></tspan></text><text
   class="SVGTextShape"
   id="text119-3"
   x="626.19946"
   y="1980.1931"
   transform="rotate(-49.269414)"><tspan
     class="TextParagraph"
     font-family="'Liberation Sans', sans-serif"
     font-size="353px"
     font-weight="400"
     id="tspan119-5"><tspan
       class="TextPosition"
       x="8524.1992"
       y="17804.191"
       id="tspan118-6"><tspan
         fill="#000000"
         stroke="none"
         style="white-space:pre"
         id="tspan117-2">Squared – 1</tspan></tspan></tspan></text>
 <text
   class="SVGTextShape"
   id="text122"><tspan
     class="TextParagraph"
     font-family="Liberation Sans, sans-serif"
     font-size="353px"
     font-weight="400"
     id="tspan122"><tspan
       class="TextPosition"
       x="10884"
       y="15824"
       id="tspan121"><tspan
         fill="rgb(0,0,0)"
         stroke="none"
         style="white-space: pre"
         id="tspan120">Tan() - 2</tspan></tspan></tspan></text><text
   class="SVGTextShape"
   id="text122-9"
   x="-3758.9993"
   y="-2375.2312"
   transform="rotate(-43.838572)"><tspan
     class="TextParagraph"
     font-family="'Liberation Sans', sans-serif"
     font-size="353px"
     font-weight="400"
     id="tspan122-1"><tspan
       class="TextPosition"
       x="7125.0005"
       y="13448.769"
       id="tspan121-2"><tspan
         fill="#000000"
         stroke="none"
         style="white-space:pre"
         id="tspan120-7">Tan() - 2</tspan></tspan></tspan></text>
 <text
   class="SVGTextShape"
   id="text125"><tspan
     class="TextParagraph"
     font-family="Liberation Sans, sans-serif"
     font-size="353px"
     font-weight="400"
     id="tspan125"><tspan
       class="TextPosition"
       x="13313"
       y="15824"
       id="tspan124"><tspan
         fill="rgb(0,0,0)"
         stroke="none"
         style="white-space: pre"
         id="tspan123">Squared tan – 3</tspan></tspan></tspan></text><text
   class="SVGTextShape"
   id="text125-0"
   x="-11010.85"
   y="822.24744"
   transform="rotate(-52.64137)"><tspan
     class="TextParagraph"
     font-family="'Liberation Sans', sans-serif"
     font-size="353px"
     font-weight="400"
     id="tspan125-9"><tspan
       class="TextPosition"
       x="2302.1511"
       y="16646.246"
       id="tspan124-3"><tspan
         fill="#000000"
         stroke="none"
         style="white-space:pre"
         id="tspan123-6">Squared tan – 3</tspan></tspan></tspan></text>
 <text
   class="SVGTextShape"
   id="text128"><tspan
     class="TextParagraph"
     font-family="Liberation Sans, sans-serif"
     font-size="353px"
     font-weight="400"
     id="tspan128"><tspan
       class="TextPosition"
       x="16881"
       y="15824"
       id="tspan127"><tspan
         fill="rgb(0,0,0)"
         stroke="none"
         style="white-space: pre"
         id="tspan126">Cubed tan – 4</tspan></tspan></tspan></text><text
   class="SVGTextShape"
   id="text128-0"
   x="-14544.001"
   y="2290.447"
   transform="rotate(-44.94082)"><tspan
     class="TextParagraph"
     font-family="'Liberation Sans', sans-serif"
     font-size="353px"
     font-weight="400"
     id="tspan128-6"><tspan
       class="TextPosition"
       x="2336.9983"
       y="18114.449"
       id="tspan127-2"><tspan
         fill="#000000"
         stroke="none"
         style="white-space:pre"
         id="tspan126-6">Cubed tan – 4</tspan></tspan></tspan></text>
 <text
   class="SVGTextShape"
   id="text131"
   x="-109.58228"
   y="-298.11172"><tspan
     class="TextParagraph"
     font-family="'Liberation Sans', sans-serif"
     font-size="318px"
     font-weight="400"
     id="tspan131"><tspan
       class="TextPosition"
       x="11518.418"
       y="15112.889"
       id="tspan130"><tspan
         fill="#000000"
         stroke="none"
         style="white-space:pre"
         id="tspan129">x - input</tspan></tspan></tspan></text>
 <text
   class="SVGTextShape"
   transform="rotate(-90 824 9101)"
   id="text134"><tspan
     class="TextParagraph"
     font-family="Liberation Sans, sans-serif"
     font-size="318px"
     font-weight="400"
     id="tspan134"><tspan
       class="TextPosition"
       x="824"
       y="9101"
       id="tspan133"><tspan
         fill="rgb(0,0,0)"
         stroke="none"
         style="white-space: pre"
         id="tspan132">result - output</tspan></tspan></tspan></text>
<text
   xml:space="preserve"
   transform="scale(26.458333)"
   id="text135"
   style="font-weight:600;font-size:24px;line-height:1.25;font-family:FreeSans;-inkscape-font-specification:'FreeSans, Semi-Bold';white-space:pre;shape-inside:url(#rect135)" /><text
   xml:space="preserve"
   transform="matrix(26.458333,0,0,26.458333,-350.05791,387.43921)"
   id="text136"
   style="font-weight:600;font-size:16px;line-height:1.25;font-family:FreeSans;-inkscape-font-specification:'FreeSans, Semi-Bold';white-space:pre;shape-inside:url(#rect136);fill-opacity:1;fill:#ff0000"><tspan
     x="31.515625"
     y="566.67305"
     id="tspan1">like a deadzone</tspan></text><path
   style="fill:#ff0000;stroke:#ff0000;stroke-width:46.49999988;stroke-linecap:butt;stroke-linejoin:miter;stroke-opacity:1;marker-end:url(#Triangle);stroke-dasharray:none"
   d="m 3137.6559,15074.257 488.4121,-793.376"
   id="path137"
   sodipodi:nodetypes="cc" /><text
   xml:space="preserve"
   transform="matrix(26.458333,0,0,26.458333,15082.287,-13869.06)"
   id="text136-9"
   style="font-weight:600;font-size:16px;line-height:1.25;font-family:FreeSans;-inkscape-font-specification:'FreeSans, Semi-Bold';white-space:pre;shape-inside:url(#rect136-7);display:inline;fill:#ff0000;fill-opacity:1"><tspan
     x="31.515625"
     y="566.67305"
     id="tspan2">output limited </tspan><tspan
     x="31.515625"
     y="586.67305"
     id="tspan5">to 350</tspan></text><path
   style="fill:#ff0000;stroke:#ff0000;stroke-width:46.5;stroke-linecap:butt;stroke-linejoin:miter;stroke-dasharray:none;stroke-opacity:1;marker-end:url(#Triangle-1)"
   d="m 17518.888,1610.102 935.255,1446.9405"
   id="path137-2"
   sodipodi:nodetypes="cc" /></svg>
