<?xml version="1.0" encoding="UTF-8"?>
<!DOCTYPE svg PUBLIC "-//W3C//DTD SVG 1.1//EN" "http://www.w3.org/Graphics/SVG/1.1/DTD/svg11.dtd">
<svg width="199mm" height="98mm" viewBox="0 0 19900 9800" version="1.1" xmlns="http://www.w3.org/2000/svg" xmlns:xlink="http://www.w3.org/1999/xlink" stroke-width="28.222" stroke-linejoin="round" xml:space="preserve">
 <path fill="rgb(255,255,255)" stroke="none" d="M 9957,9740 L -13,9740 -13,-13 19927,-13 19927,9740 9957,9740 Z"/>
 <path fill="none" stroke="rgb(179,179,179)" stroke-linejoin="round" d="M 9406,7917 L 2203,7917 2203,1492 16609,1492 16609,7917 9406,7917 Z"/>
 <path fill="none" stroke="rgb(179,179,179)" stroke-linejoin="round" d="M 16609,7916 L 2203,7916"/>
 <path fill="none" stroke="rgb(179,179,179)" stroke-linejoin="round" d="M 16609,7112 L 2203,7112"/>
 <path fill="none" stroke="rgb(179,179,179)" stroke-linejoin="round" d="M 16609,6309 L 2203,6309"/>
 <path fill="none" stroke="rgb(179,179,179)" stroke-linejoin="round" d="M 16609,5506 L 2203,5506"/>
 <path fill="none" stroke="rgb(179,179,179)" stroke-linejoin="round" d="M 16609,4704 L 2203,4704"/>
 <path fill="none" stroke="rgb(179,179,179)" stroke-linejoin="round" d="M 16609,3900 L 2203,3900"/>
 <path fill="none" stroke="rgb(179,179,179)" stroke-linejoin="round" d="M 16609,3097 L 2203,3097"/>
 <path fill="none" stroke="rgb(179,179,179)" stroke-linejoin="round" d="M 16609,2294 L 2203,2294"/>
 <path fill="none" stroke="rgb(179,179,179)" stroke-linejoin="round" d="M 16609,1491 L 2203,1491"/>
 <path fill="none" stroke="rgb(179,179,179)" stroke-linejoin="round" d="M 2203,8066 L 2203,7916"/>
 <path fill="none" stroke="rgb(179,179,179)" stroke-linejoin="round" d="M 2203,8066 L 2203,7916"/>
 <path fill="none" stroke="rgb(179,179,179)" stroke-linejoin="round" d="M 4003,8066 L 4003,7916"/>
 <path fill="none" stroke="rgb(179,179,179)" stroke-linejoin="round" d="M 4003,8066 L 4003,7916"/>
 <path fill="none" stroke="rgb(179,179,179)" stroke-linejoin="round" d="M 5804,8066 L 5804,7916"/>
 <path fill="none" stroke="rgb(179,179,179)" stroke-linejoin="round" d="M 5804,8066 L 5804,7916"/>
 <path fill="none" stroke="rgb(179,179,179)" stroke-linejoin="round" d="M 7605,8066 L 7605,7916"/>
 <path fill="none" stroke="rgb(179,179,179)" stroke-linejoin="round" d="M 7605,8066 L 7605,7916"/>
 <path fill="none" stroke="rgb(179,179,179)" stroke-linejoin="round" d="M 9406,8066 L 9406,7916"/>
 <path fill="none" stroke="rgb(179,179,179)" stroke-linejoin="round" d="M 9406,8066 L 9406,7916"/>
 <path fill="none" stroke="rgb(179,179,179)" stroke-linejoin="round" d="M 11206,8066 L 11206,7916"/>
 <path fill="none" stroke="rgb(179,179,179)" stroke-linejoin="round" d="M 11206,8066 L 11206,7916"/>
 <path fill="none" stroke="rgb(179,179,179)" stroke-linejoin="round" d="M 13007,8066 L 13007,7916"/>
 <path fill="none" stroke="rgb(179,179,179)" stroke-linejoin="round" d="M 13007,8066 L 13007,7916"/>
 <path fill="none" stroke="rgb(179,179,179)" stroke-linejoin="round" d="M 14808,8066 L 14808,7916"/>
 <path fill="none" stroke="rgb(179,179,179)" stroke-linejoin="round" d="M 14808,8066 L 14808,7916"/>
 <path fill="none" stroke="rgb(179,179,179)" stroke-linejoin="round" d="M 16609,8066 L 16609,7916"/>
 <path fill="none" stroke="rgb(179,179,179)" stroke-linejoin="round" d="M 16609,8066 L 16609,7916"/>
 <path fill="none" stroke="rgb(179,179,179)" stroke-linejoin="round" d="M 2203,7916 L 16609,7916"/>
 <path fill="none" stroke="rgb(179,179,179)" stroke-linejoin="round" d="M 2053,7916 L 2203,7916"/>
 <path fill="none" stroke="rgb(179,179,179)" stroke-linejoin="round" d="M 2053,7916 L 2203,7916"/>
 <path fill="none" stroke="rgb(179,179,179)" stroke-linejoin="round" d="M 2053,7112 L 2203,7112"/>
 <path fill="none" stroke="rgb(179,179,179)" stroke-linejoin="round" d="M 2053,7112 L 2203,7112"/>
 <path fill="none" stroke="rgb(179,179,179)" stroke-linejoin="round" d="M 2053,6309 L 2203,6309"/>
 <path fill="none" stroke="rgb(179,179,179)" stroke-linejoin="round" d="M 2053,6309 L 2203,6309"/>
 <path fill="none" stroke="rgb(179,179,179)" stroke-linejoin="round" d="M 2053,5506 L 2203,5506"/>
 <path fill="none" stroke="rgb(179,179,179)" stroke-linejoin="round" d="M 2053,5506 L 2203,5506"/>
 <path fill="none" stroke="rgb(179,179,179)" stroke-linejoin="round" d="M 2053,4704 L 2203,4704"/>
 <path fill="none" stroke="rgb(179,179,179)" stroke-linejoin="round" d="M 2053,4704 L 2203,4704"/>
 <path fill="none" stroke="rgb(179,179,179)" stroke-linejoin="round" d="M 2053,3900 L 2203,3900"/>
 <path fill="none" stroke="rgb(179,179,179)" stroke-linejoin="round" d="M 2053,3900 L 2203,3900"/>
 <path fill="none" stroke="rgb(179,179,179)" stroke-linejoin="round" d="M 2053,3097 L 2203,3097"/>
 <path fill="none" stroke="rgb(179,179,179)" stroke-linejoin="round" d="M 2053,3097 L 2203,3097"/>
 <path fill="none" stroke="rgb(179,179,179)" stroke-linejoin="round" d="M 2053,2294 L 2203,2294"/>
 <path fill="none" stroke="rgb(179,179,179)" stroke-linejoin="round" d="M 2053,2294 L 2203,2294"/>
 <path fill="none" stroke="rgb(179,179,179)" stroke-linejoin="round" d="M 2053,1491 L 2203,1491"/>
 <path fill="none" stroke="rgb(179,179,179)" stroke-linejoin="round" d="M 2053,1491 L 2203,1491"/>
 <path fill="none" stroke="rgb(179,179,179)" stroke-linejoin="round" d="M 2203,7916 L 2203,1491"/>
 <path fill="none" stroke="rgb(87,157,28)" stroke-width="80" stroke-linejoin="round" d="M 2203,7916 L 2239,7916 2275,7899 2311,7899 2347,7899 2383,7883 2419,7883 2455,7883 2491,7867 2527,7867 2563,7867 2599,7851 2635,7851 2671,7851 2707,7835 2743,7835 2779,7835 2815,7819 2851,7819 2887,7819 2923,7803 2959,7803 2995,7787 3031,7787 3067,7787 3103,7771 3139,7771 3175,7771 3211,7755 3247,7755 3283,7739 3355,7739 3427,7723 3499,7707 3571,7691 3643,7675 3715,7658 3787,7642 3859,7626 3931,7610 4003,7610 4075,7594 4147,7578 4219,7562 4292,7546 4364,7530 4436,7514 4508,7498 4580,7498 4652,7466 4724,7450 4796,7434 4868,7417 4940,7417 5012,7401 5084,7385 5156,7353 5228,7337 5300,7321 5372,7305 5444,7305 5516,7289 5588,7273 5660,7241 5732,7225 5804,7209 5876,7193 5948,7177 6020,7160 6092,7144 6164,7128 6236,7112 6308,7096 6381,7080 6453,7064 6525,7032 6597,7016 6669,7000 6741,6984 6813,6968 6885,6952 6957,6919 7029,6903 7101,6887 7173,6871 7245,6855 7317,6823 7389,6807 7461,6791 7533,6775 7605,6743 7677,6727 7749,6711 7821,6695 7893,6662 7965,6646 8037,6630 8109,6614 8181,6582 8253,6566 8325,6534 8398,6518 8470,6486 8542,6470 8614,6438 8686,6421 8758,6405 8830,6373 8902,6357 8974,6325 9046,6309 9118,6277 9190,6245 9262,6229 9334,6197 9406,6180 9478,6148 9550,6132 9622,6100 9694,6084 9766,6036 9838,6020 9910,5988 9981,5956 10053,5940 10125,5907 10197,5875 10269,5859 10341,5811 10413,5779 10486,5747 10558,5731 10630,5699 10702,5666 10774,5618 10846,5586 10918,5554 10990,5522 11062,5490 11134,5441 11206,5409 11278,5377 11350,5345 11422,5313 11494,5281 11566,5233 11638,5201 11710,5152 11782,5120 11854,5088 11926,5024 11998,4992 12070,4943 12142,4911 12214,4848 12286,4800 12358,4768 12430,4720 12503,4671 12575,4607 12647,4559 12719,4527 12791,4479 12863,4398 12935,4350 13007,4302 13079,4254 13151,4173 13223,4125 13295,4061 13367,4013 13439,3916 13511,3868 13583,3804 13655,3740 13727,3643 13799,3579 13871,3515 13943,3418 14015,3338 14087,3274 14159,3193 14231,3081 14303,3001 14375,2920 14447,2792 14519,2711 14592,2631 14664,2535 14736,2390 14808,2294"/>
 <path fill="none" stroke="rgb(255,66,14)" stroke-width="80" stroke-linejoin="round" d="M 2203,7916 L 2239,7916 2275,7899 2311,7899 2347,7883 2383,7867 2419,7867 2455,7851 2491,7835 2527,7835 2563,7819 2599,7803 2635,7803 2671,7787 2707,7771 2743,7771 2779,7755 2815,7739 2851,7723 2887,7723 2923,7707 2959,7691 2995,7675 3031,7675 3067,7658 3103,7642 3139,7626 3175,7626 3211,7610 3247,7594 3283,7578 3355,7562 3427,7530 3499,7498 3571,7482 3643,7450 3715,7417 3787,7401 3859,7369 3931,7337 4003,7321 4075,7289 4147,7257 4219,7225 4292,7209 4364,7177 4436,7144 4508,7112 4580,7096 4652,7064 4724,7032 4796,7000 4868,6968 4940,6952 5012,6919 5084,6887 5156,6855 5228,6823 5300,6791 5372,6759 5444,6743 5516,6711 5588,6678 5660,6646 5732,6614 5804,6582 5876,6550 5948,6518 6020,6486 6092,6454 6164,6438 6236,6405 6308,6373 6381,6341 6453,6309 6525,6277 6597,6245 6669,6213 6741,6180 6813,6148 6885,6116 6957,6084 7029,6052 7101,6020 7173,5988 7245,5956 7317,5923 7389,5891 7461,5859 7533,5827 7605,5795 7677,5763 7749,5731 7821,5699 7893,5666 7965,5634 8037,5602 8109,5570 8181,5538 8253,5506 8325,5458 8398,5425 8470,5393 8542,5361 8614,5329 8686,5297 8758,5265 8830,5233 8902,5201 8974,5168 9046,5136 9118,5104 9190,5056 9262,5024 9334,4992 9406,4960 9478,4927 9550,4895 9622,4864 9694,4832 9766,4784 9838,4752 9910,4720 9981,4687 10053,4655 10125,4623 10197,4591 10269,4559 10341,4511 10413,4479 10486,4446 10558,4414 10630,4382 10702,4350 10774,4302 10846,4270 10918,4238 10990,4205 11062,4173 11134,4125 11206,4093 11278,4061 11350,4029 11422,3997 11494,3965 11566,3916 11638,3884 11710,3852 11782,3820 11854,3788 11926,3740 11998,3707 12070,3675 12142,3643 12214,3595 12286,3563 12358,3531 12430,3499 12503,3466 12575,3418 12647,3386 12719,3354 12791,3322 12863,3274 12935,3242 13007,3209 13079,3177 13151,3129 13223,3097 13295,3065 13367,3033 13439,2985 13511,2952 13583,2920 13655,2888 13727,2840 13799,2808 13871,2776 13943,2728 14015,2695 14087,2663 14159,2631 14231,2583 14303,2551 14375,2519 14447,2470 14519,2438 14592,2406 14664,2374 14736,2326 14808,2294"/>
 <path fill="none" stroke="rgb(0,69,134)" stroke-width="80" stroke-linejoin="round" d="M 2203,7916 L 2239,7899 2275,7883 2311,7867 2347,7851 2383,7835 2419,7819 2455,7803 2491,7787 2527,7771 2563,7755 2599,7739 2635,7723 2671,7707 2707,7691 2743,7675 2779,7658 2815,7642 2851,7626 2887,7610 2923,7594 2959,7578 2995,7562 3031,7546 3067,7530 3103,7514 3139,7498 3175,7482 3211,7466 3247,7450 3283,7434 3355,7401 3427,7369 3499,7337 3571,7305 3643,7273 3715,7241 3787,7209 3859,7177 3931,7144 4003,7112 4075,7080 4147,7048 4219,7016 4292,6984 4364,6952 4436,6919 4508,6887 4580,6855 4652,6823 4724,6791 4796,6759 4868,6727 4940,6695 5012,6662 5084,6630 5156,6598 5228,6566 5300,6534 5372,6502 5444,6470 5516,6438 5588,6405 5660,6373 5732,6341 5804,6309 5876,6277 5948,6245 6020,6213 6092,6180 6164,6148 6236,6116 6308,6084 6381,6052 6453,6020 6525,5988 6597,5956 6669,5923 6741,5891 6813,5859 6885,5827 6957,5795 7029,5763 7101,5731 7173,5699 7245,5666 7317,5634 7389,5602 7461,5570 7533,5538 7605,5506 7677,5474 7749,5441 7821,5409 7893,5377 7965,5345 8037,5313 8109,5281 8181,5249 8253,5217 8325,5184 8398,5152 8470,5120 8542,5088 8614,5056 8686,5024 8758,4992 8830,4960 8902,4927 8974,4895 9046,4864 9118,4832 9190,4800 9262,4768 9334,4736 9406,4704 9478,4671 9550,4639 9622,4607 9694,4575 9766,4543 9838,4511 9910,4479 9981,4446 10053,4414 10125,4382 10197,4350 10269,4318 10341,4286 10413,4254 10486,4222 10558,4189 10630,4157 10702,4125 10774,4093 10846,4061 10918,4029 10990,3997 11062,3965 11134,3932 11206,3900 11278,3868 11350,3836 11422,3804 11494,3772 11566,3740 11638,3707 11710,3675 11782,3643 11854,3611 11926,3579 11998,3547 12070,3515 12142,3483 12214,3450 12286,3418 12358,3386 12430,3354 12503,3322 12575,3290 12647,3258 12719,3226 12791,3193 12863,3161 12935,3129 13007,3097 13079,3065 13151,3033 13223,3001 13295,2968 13367,2936 13439,2904 13511,2872 13583,2840 13655,2808 13727,2776 13799,2744 13871,2711 13943,2679 14015,2647 14087,2615 14159,2583 14231,2551 14303,2519 14375,2487 14447,2454 14519,2422 14592,2390 14664,2358 14736,2326 14808,2294"/>
 <text class="SVGTextShape"><tspan class="TextParagraph"><tspan class="TextPosition" x="2110" y="8484"><tspan font-family="Liberation Sans, sans-serif" font-size="353px" font-weight="400" fill="rgb(0,0,0)" stroke="none" style="white-space: pre">0</tspan></tspan></tspan></text>
 <text class="SVGTextShape"><tspan class="TextParagraph"><tspan class="TextPosition" x="3818" y="8484"><tspan font-family="Liberation Sans, sans-serif" font-size="353px" font-weight="400" fill="rgb(0,0,0)" stroke="none" style="white-space: pre">50</tspan></tspan></tspan></text>
 <text class="SVGTextShape"><tspan class="TextParagraph"><tspan class="TextPosition" x="5526" y="8484"><tspan font-family="Liberation Sans, sans-serif" font-size="353px" font-weight="400" fill="rgb(0,0,0)" stroke="none" style="white-space: pre">100</tspan></tspan></tspan></text>
 <text class="SVGTextShape"><tspan class="TextParagraph"><tspan class="TextPosition" x="7327" y="8484"><tspan font-family="Liberation Sans, sans-serif" font-size="353px" font-weight="400" fill="rgb(0,0,0)" stroke="none" style="white-space: pre">150</tspan></tspan></tspan></text>
 <text class="SVGTextShape"><tspan class="TextParagraph"><tspan class="TextPosition" x="9128" y="8484"><tspan font-family="Liberation Sans, sans-serif" font-size="353px" font-weight="400" fill="rgb(0,0,0)" stroke="none" style="white-space: pre">200</tspan></tspan></tspan></text>
 <text class="SVGTextShape"><tspan class="TextParagraph"><tspan class="TextPosition" x="10928" y="8484"><tspan font-family="Liberation Sans, sans-serif" font-size="353px" font-weight="400" fill="rgb(0,0,0)" stroke="none" style="white-space: pre">250</tspan></tspan></tspan></text>
 <text class="SVGTextShape"><tspan class="TextParagraph"><tspan class="TextPosition" x="12729" y="8484"><tspan font-family="Liberation Sans, sans-serif" font-size="353px" font-weight="400" fill="rgb(0,0,0)" stroke="none" style="white-space: pre">300</tspan></tspan></tspan></text>
 <text class="SVGTextShape"><tspan class="TextParagraph"><tspan class="TextPosition" x="14530" y="8484"><tspan font-family="Liberation Sans, sans-serif" font-size="353px" font-weight="400" fill="rgb(0,0,0)" stroke="none" style="white-space: pre">350</tspan></tspan></tspan></text>
 <text class="SVGTextShape"><tspan class="TextParagraph"><tspan class="TextPosition" x="16331" y="8484"><tspan font-family="Liberation Sans, sans-serif" font-size="353px" font-weight="400" fill="rgb(0,0,0)" stroke="none" style="white-space: pre">400</tspan></tspan></tspan></text>
 <text class="SVGTextShape"><tspan class="TextParagraph"><tspan class="TextPosition" x="1768" y="8036"><tspan font-family="Liberation Sans, sans-serif" font-size="353px" font-weight="400" fill="rgb(0,0,0)" stroke="none" style="white-space: pre">0</tspan></tspan></tspan></text>
 <text class="SVGTextShape"><tspan class="TextParagraph"><tspan class="TextPosition" x="1583" y="7232"><tspan font-family="Liberation Sans, sans-serif" font-size="353px" font-weight="400" fill="rgb(0,0,0)" stroke="none" style="white-space: pre">50</tspan></tspan></tspan></text>
 <text class="SVGTextShape"><tspan class="TextParagraph"><tspan class="TextPosition" x="1397" y="6429"><tspan font-family="Liberation Sans, sans-serif" font-size="353px" font-weight="400" fill="rgb(0,0,0)" stroke="none" style="white-space: pre">100</tspan></tspan></tspan></text>
 <text class="SVGTextShape"><tspan class="TextParagraph"><tspan class="TextPosition" x="1397" y="5626"><tspan font-family="Liberation Sans, sans-serif" font-size="353px" font-weight="400" fill="rgb(0,0,0)" stroke="none" style="white-space: pre">150</tspan></tspan></tspan></text>
 <text class="SVGTextShape"><tspan class="TextParagraph"><tspan class="TextPosition" x="1397" y="4824"><tspan font-family="Liberation Sans, sans-serif" font-size="353px" font-weight="400" fill="rgb(0,0,0)" stroke="none" style="white-space: pre">200</tspan></tspan></tspan></text>
 <text class="SVGTextShape"><tspan class="TextParagraph"><tspan class="TextPosition" x="1397" y="4020"><tspan font-family="Liberation Sans, sans-serif" font-size="353px" font-weight="400" fill="rgb(0,0,0)" stroke="none" style="white-space: pre">250</tspan></tspan></tspan></text>
 <text class="SVGTextShape"><tspan class="TextParagraph"><tspan class="TextPosition" x="1397" y="3217"><tspan font-family="Liberation Sans, sans-serif" font-size="353px" font-weight="400" fill="rgb(0,0,0)" stroke="none" style="white-space: pre">300</tspan></tspan></tspan></text>
 <text class="SVGTextShape"><tspan class="TextParagraph"><tspan class="TextPosition" x="1397" y="2414"><tspan font-family="Liberation Sans, sans-serif" font-size="353px" font-weight="400" fill="rgb(0,0,0)" stroke="none" style="white-space: pre">350</tspan></tspan></tspan></text>
 <text class="SVGTextShape"><tspan class="TextParagraph"><tspan class="TextPosition" x="1397" y="1611"><tspan font-family="Liberation Sans, sans-serif" font-size="353px" font-weight="400" fill="rgb(0,0,0)" stroke="none" style="white-space: pre">400</tspan></tspan></tspan></text>
 <text class="SVGTextShape"><tspan class="TextParagraph"><tspan class="TextPosition" x="5856" y="853"><tspan font-family="Liberation Sans, sans-serif" font-size="459px" font-weight="400" fill="rgb(0,0,0)" stroke="none" style="white-space: pre">Modifier Functions for a=1.15 and b=1.15</tspan></tspan></tspan></text>
 <path fill="none" stroke="rgb(0,69,134)" stroke-width="80" stroke-linejoin="round" d="M 17403,3548 L 18203,3548"/>
 <path fill="none" stroke="rgb(255,66,14)" stroke-width="80" stroke-linejoin="round" d="M 17403,4443 L 18203,4443"/>
 <path fill="none" stroke="rgb(87,157,28)" stroke-width="80" stroke-linejoin="round" d="M 17403,5337 L 18203,5337"/>
 <text class="SVGTextShape"><tspan class="TextParagraph"><tspan class="TextPosition" x="18303" y="3691"><tspan font-family="Liberation Sans, sans-serif" font-size="353px" font-weight="400" fill="rgb(0,0,0)" stroke="none" style="white-space: pre">0</tspan></tspan></tspan><tspan class="TextParagraph"><tspan class="TextPosition" x="18303" y="4088"><tspan font-family="Liberation Sans, sans-serif" font-size="353px" font-weight="400" fill="rgb(0,0,0)" stroke="none" style="white-space: pre">Linear</tspan></tspan></tspan></text>
 <text class="SVGTextShape"><tspan class="TextParagraph"><tspan class="TextPosition" x="18303" y="4586"><tspan font-family="Liberation Sans, sans-serif" font-size="353px" font-weight="400" fill="rgb(0,0,0)" stroke="none" style="white-space: pre">1</tspan></tspan></tspan><tspan class="TextParagraph"><tspan class="TextPosition" x="18303" y="4982"><tspan font-family="Liberation Sans, sans-serif" font-size="353px" font-weight="400" fill="rgb(0,0,0)" stroke="none" style="white-space: pre">Squared</tspan></tspan></tspan></text>
 <text class="SVGTextShape"><tspan class="TextParagraph"><tspan class="TextPosition" x="18303" y="5480"><tspan font-family="Liberation Sans, sans-serif" font-size="353px" font-weight="400" fill="rgb(0,0,0)" stroke="none" style="white-space: pre">3</tspan></tspan></tspan><tspan class="TextParagraph"><tspan class="TextPosition" x="18303" y="5877"><tspan font-family="Liberation Sans, sans-serif" font-size="353px" font-weight="400" fill="rgb(0,0,0)" stroke="none" style="white-space: pre">Squared</tspan></tspan></tspan><tspan class="TextParagraph"><tspan class="TextPosition" x="18303" y="6274"><tspan font-family="Liberation Sans, sans-serif" font-size="353px" font-weight="400" fill="rgb(0,0,0)" stroke="none" style="white-space: pre">Tan()</tspan></tspan></tspan></text>
 <text class="SVGTextShape"><tspan class="TextParagraph"><tspan class="TextPosition" x="8600" y="9145"><tspan font-family="Liberation Sans, sans-serif" font-size="318px" font-weight="400" fill="rgb(0,0,0)" stroke="none" style="white-space: pre">x inputs</tspan></tspan></tspan></text>
 <text class="SVGTextShape" transform="rotate(-90 824 5429)"><tspan class="TextParagraph"><tspan class="TextPosition" x="824" y="5429"><tspan font-family="Liberation Sans, sans-serif" font-size="318px" font-weight="400" fill="rgb(0,0,0)" stroke="none" style="white-space: pre">result y</tspan></tspan></tspan></text>
</svg>